<mxfile host="app.diagrams.net" agent="Mozilla/5.0 (Windows NT 10.0; Win64; x64) AppleWebKit/537.36 (KHTML, like Gecko) Chrome/130.0.0.0 Safari/537.36 OPR/115.0.0.0" version="25.0.3">
  <diagram name="Page-1" id="OJx3Y8fNpaljh_xx6Z1j">
    <mxGraphModel dx="1709" dy="927" grid="1" gridSize="10" guides="1" tooltips="1" connect="1" arrows="1" fold="1" page="1" pageScale="1" pageWidth="850" pageHeight="1100" math="0" shadow="0">
      <root>
        <mxCell id="0" />
        <mxCell id="1" parent="0" />
        <mxCell id="CIHnsiqsybDm5zCaYKHE-28" value="User" style="shape=umlActor;verticalLabelPosition=bottom;verticalAlign=top;html=1;" vertex="1" parent="1">
          <mxGeometry x="130" y="220" width="30" height="60" as="geometry" />
        </mxCell>
        <mxCell id="CIHnsiqsybDm5zCaYKHE-31" value="" style="endArrow=none;dashed=1;html=1;rounded=0;" edge="1" parent="1">
          <mxGeometry width="50" height="50" relative="1" as="geometry">
            <mxPoint x="144.5" y="680" as="sourcePoint" />
            <mxPoint x="144.5" y="300" as="targetPoint" />
          </mxGeometry>
        </mxCell>
        <mxCell id="CIHnsiqsybDm5zCaYKHE-34" value="" style="shape=image;verticalLabelPosition=bottom;labelBackgroundColor=default;verticalAlign=top;aspect=fixed;imageAspect=0;image=data:image/png,iVBORw0KGgoAAAANSUhEUgAAAfoAAAH9CAYAAADyEL7xAAAAAXNSR0IArs4c6QAAAARnQU1BAACxjwv8YQUAAAAJcEhZcwAADsMAAA7DAcdvqGQAAHtrSURBVHhe7b1viB3bmp+3Tz76Y8hgW1aURq0vCQkJgSgT0S3MwXSLJOCMo+CWTkIUkujSCodhcEc9Hzrm4GiurROBub7cbqIE0iGDpOEq4/hiJ5JixIx0orEVYsfETCC3W8g9sjzhBoIxdzxDLij1rK7fPm+vrqpd+1/33tW/B5Zq/V/veteq9dZaVer92aeCnjHGGGM6yT9RXo0xxhjTQWzojTHGmA5jQ2+MMcZ0GBt6Y4wxpsPY0BtjjDEdpvar+88++6z0GWOMMWaeiKa90dD/1Tf/oAwZM3v8m1f+qOeoMcZksDZG0+6je2OMMabD2NAbY4wxHcaG3hhjjOkwIxn63/47b9M7ANx//O/8a2XsIa/++v/QT8OdJL/78e8dafvP/tKNMqXX237wy5XxQB9iGvX897/6gzLVzCNxTHPH/M2pixeaW1wnBXMsn4tAfJSXeyqf28QNgjz5/WmMOXuM9TEeC8nXf3a996//qX+/d2fjL5Sxh2BY87iTgsXt3/vOZu/qn/i3yphDWMj/n5987MezeP5H13/+iPzkubv+Jyv7ZGYLDF7THMVg/p3/7Zven/uLj8uYXjKsf+tv/kbvP7iz1fu3/93/pIwdDG3Bf/30b/T+yLl/JvmnieZmbE9zs80HiMr7R//YQu+/+uFvlbHGmLMA69VEP8Zjwfwff/2/bbXDmDW2/4tf7v3L/+ofP2LQ/7l/8XJaSH/3709u52ZmB4w+D3H/zfa9oXbnGNzTBFn/4r1fbP2/DJjHd//cThkyxpxlxjb0/+y/8K8kY8/Ovm7h5CFAR4445WPXobDSiIv5I/E4lhODcaBNdnZ/4t/402XMUeIu0HSLP3VzPV3/l5d/NV01/zQvNf+YY1XzLM5XHb/j18Ou0lSfjuK5xvrq6s+h3v/sF9dqd+bxqL+pPtKULx7p6z6kH23kMcbMFxP5GI8jUHbGLEZV/Hf/5f3e1zt/Je1GyPfrj3bSIsjRIlCONHZa7Fr+7v/+N1KYY0cWMWCx+6PnF1I8dXGKoIV0FP6v3/7b6fpP/dy5dDVnBx2F/9+/+zvpyhF55K//tV9L8+yf/5d+vve3/+ZvlrHfwtxhHpOHuc9DIXNV5Lt/Xh+QF3RSxLxmDg+Ce4X7oc7IY6TpB/XjqJO4HO4V0pTvH/z99/0Hkye7fzHFrd36pVYyGWPmi4l9dc9ix+JRtSNgkeIoEf7IHztcZFlsMdigRewP/5F/OhlzHaXjF7xX1y77n/y5P5yuxkyC3DD/gw+HRpA5lxtYGd5hTnw4OcL46qEA8PNgOwgeNDC+dTvt3/iffz2la6cO/+f/8b+ma4T7DWMu4oMJ8OCh11bGmG4xMUMPvBNk0dFOIYeFaNwdAwtSvgPLiQ8IdWgnz8d55myhkyB27FX80tb30qso5qtOlATzt2qX3wT3BadX1Fd3b9Txn3/vSf8Eq+oLfU4IeHWmnTqu6SNDHdPzUC7u/Kd/IX2zQLyP7o3pHhM19OyA2KWwSEb0DpNFqM0upgotUNDmw6if/O7fL33fwk5HBp7dC7sajmmrqFpUTTdgVw75/8oQ2tliYDGA8SicuceD5DAGkXaoD4Pf9C1LHchDu5wM5P9djhMyvYIYBPePjunjjl67fdpoelA3xswnEzX0wLF7XERY1Fig2hjnJjii5CGhabci+MAuX6BZvJ79lV/tv0IAdm7Ilht1FlN2OaZ7MNYYs6Yv0jUfmCu8i89hblBHnF8Yfz1c6iM/nTypPgx+fmTeFowx9xA7cT3wAqcSURbut/wUApj/tF31ykHy0caoD+LGmNll5P9Hz+KAkQQWh/hf1Fhs2DUpLuZlsWGx+uOrf6r3G89/PcWBdjvA4spOhQUMOJrk6359vKc6gMWPBSqHhS2eLFCm7oOmuHBCXZ1mttApURU8rMXj6Ugsw1yNr4JIY7euuae5HecIO33NReYqxjPON8pQXvMozn/9//3YhuIEhpoHVcG9wUNC3ifF5/npQ5RHMsY+6B6iDh5QVF55jTHzC/d6NO3+9ToztzQZemOMOavkhn7iR/fGGGOMmR1s6I0xxpgOY0NvjDHGdBgbemOMMabD2NAbY4wxHcaG3hhjjOkwNvTGGGNMh7GhN8YYYzqMDb0xxhjTYRr/Mp4xxhhj5o9o2hsNfU2SMTOB56gxxhwnXxt9dG+MMcZ0GBt6Y4wxpsPY0BtjjDEdZmRDf+nSpfQeoMp98803Za7RuHbtWu/rr78uQ4N59+5dapfrqDx58iT1KYf42LcoV9RBjJc8MY16xtWLaU/V/Kwa364yiXui64yqI+5n1qgq6taReeLOnTvJzSKMV1xH83AVbfIMQ9P4zyx8jFdFQ1Kf+/fvf1pdXS1DhxCmLGmjsL6+Plb5abC/v59k4pqDnDH+8ePHKS9XQZ48zowPOm0in5/kX1xcLEPdhr7iqubsJHj9+vXcz+dRdKT7O1/3AJ2QNm9zjDV3HkCv6Bc9t2WUMl2APkcmfnT/7NmzXjFxepubmyPtJra3t3vFTVSG5o8bN270CgPTW1tbK2N6vbt37/aKidY7ODgoY8xpwLgUi/qZ2OXSz2ly79690je/jKIj7mvmURVLS0u94kGgDM0H3As7OztlaLbZ29srfe0ZpUwXmco7+o2NjXR9+vRpukI8Ss2PXnB1R9sckZCu4zAdmyieMjj8gjTlI56r0FF8fjw1ieMY6obr16+na4RFAINvTo8LFy6UvkM0b3DxuFVzgzmRp4HmVXR6eKBcnhbbIZ/CsV7l031C2yLWmcuSo/Lx3gP1RU7oqFn3BS4+CMUykon8z58/Tw+1VfKof9SjssTFNiIxPt6D+GlT/a+6j+Uk87Btw8ePH/tp5BOD9N5UJ8R0ZACFcXGMNQaaW7RdhfqlfuKizEBdSlO7oDkgnZJW7HhTmuJBege1k+tTRDnkJHud/qibNgbpT0gnkklIJo296qPdOv2pPdJVr/SnNNVHe4S5xvqa6p9Zyp39MRqS+uRHoxHK60iIq45OOPrS0RblFU9++amTNCBeR2s6Not5SVMc6Og/5sGv+iRvlKPpOA7UhuSIUK/i1bY5GQbpOp+f5NeYQ/RrzuHIh9Ocwc8cgVgn84u0OD9Vp+ZMPk+r8nIlTemaj6ByAr9kyVEfQHNR7UU/7ZFP8uPivSq5yKP4KBOQp0oOyYtTPapTdal9IH8cI9VLXtVDWPVKn+STn/LkH6XtmFd9JF5pAr/6S3nCsU6lcY1tqy2o0yfy48fRJ40LMuQoX5XMkMuiOkF6Rg751ZZAPsLkkQ5wsU9xvPL61b86/UkmnPJSd9RThDzKR57YnupR3yUXbUheUBlcjIeoL8mc1xf1JRkk06yCjJGjoUCesYqogJyoDPy5Q5l15YmjLPlyqsrkk5V08olYJg5spKkv+QSIUE7xdTKb6TBI14wNeaITccGR0/gzjvFGjnOmKk0LTz6H8NctIsTHRYc01ZPP50jd/M0XsaY5i1zICrkcdeVymerkgDxvlV7UftUYSb8xH5AmHUXimAzTdlVf6/oV45vqlD6Jq9MPNOmzbgygSea8TkAO6Ya0XH91ZdSfJn3msiCD0nLa6i+i+iOxD3n7sY0IedBBlWxNeo9tReJ8m1WQPTKVo3sdfVy9erXvL5RHy3138eLFdJTNOxSOR/KjMb03isdEoxKPbHd3d9ORo45k2oCsbVhYWEhX9dmcPsXNfWTeCb6XyNP4vmQQN2/e7L148aIMHc7rc+fOJT+vbDjSFszt8+fPl6Hx0BEp7VXx4cOH0lcP85I6oow5VXOdY8rl5eUyNFnev3+fvumJ48B3Om2hP5N8x5yvQ4P0XgV50fGrV6/KmKNMWp+SmTlQGK7kF3E8C4OW2qU/+XH/KFA399Dbt29TmHsqnz+j6E/wSmUYmtZ25kjTvK9i0vo6TaZi6B88eJCufLiiga8bNBZDbm6I7z2KJ7y+osclTkDeldNe8aSWPhgc5kGiqg8vX77s16138/n7UWCRnbv3Oh2Gh79RPtRh/sR3oMxRjT9XjJbSbt++nfKPC3Xx8RvzNl/II02LKTKvrKykOlic69BDKn3RO08e2LlfpgEPx6M8GOv9Kv1B55MiPpy11XsOeSmDcYkGYlr6lMw45kCuT21AWI+RizmLQRxF7zlbW1t94/rw4cMjD2mj6i+nrZxNaztxzBPmTVumoa/TYuKGHkUywVGOYGG5detWGTr8yAGlcdVgVH3Fi6IpO4qBxAALJiA7MdBAMymaFrwcJkn+0IFcWuQBPw8oTLL4RElfWWSH2amY6XL58uW0KMZxajPPyM9cZgHAMUcFCzmLqtLix5eaJ3pYZPdB+4MWHupkkRx02iA51AftsijLPUZbdQ820TjwkCrDiYzM59hHke98R+XKlStppxUN4qBxQFbKIPckkK6QgX6xNrTVexMyEKJJn8MimbV+IjMOmaP+WIu1AdFco30ZXp1GjUq8F+L8moT+8v6or6zDVUZ30NrO+pvPNcZb/xtKGzTppkpfc0sxQJU0JCWKjqc8Va6KmL9YSFIc72WKATlSjjSF8/Tvfe97fT/xUDyp9eNoA0iL5ahHxPqjHHlcFbFsU94oE05ymcmCbuvI52cV+TgRzudCnEfFwp2cwnJVc1Eujn2cP/iVFmXN64cYVl7y5cT2JXdhDFNabEN++ko9hBXHVURZYnmIeorQnuJxsQ5kijrQfZn3mTryfLF9+hnHRWlffPFFPw7Xpu0or8ZRKB6nNr788st+XF5n9JM/ti9dx3T5Y1+qdBGRvLFMnkfxOHQlYhn1HyQL8sc8cb3F5fqMZaNTmzGujf6iTCIfH67UH+NxkI8FRPni/UE8xD6pvPRZpa9B8s4KyBc5GgrkGecJBmiWB8FMhtOYoywMOcSxOGgBihCnhW8WQXYtemb2+Ukx5xcKxzz76Xe/m8JcYVbC/9O1a0fCg/LH8O//8IfJb8bDht50hpOeo9pF5Gj3QFpu6JU2q9jQzxe/82f+zKcfFvPs7z18mIzk733/+6d6/dGf/JNHwq9v3arM1/b6sx//uOypGYfOG/p5OVox43Mac5Q5pfklJ+MejwHlZnk3X3WUaWYbxup+4TCKv7OxkeLa7JSnFUaeXywcYa6sv03524TN+DAukc/4p4g8hr5oNWZW8Rw1xpjj5GvjVP57nTHGGGNmAxt6Y4wxpsPY0BtjjDEdxobeGGOM6TA29MYYY0yHsaE3xhhjOowNvTHGGNNhbOiNMcaYDmNDb4wxxnQYG3pjjDGmw9jQGzMG/D79oN+UnxT8Hjd/2nKSIHv8Tf62jFpuXuH3z9F91e+gGzPr2NAbU8GdO3dKXz1PnjzpbW5ulqHJg2GnDbG0tDTRv+1PH58/f16G2jNquXlmcXGx9Bkzf9jQG5PRdqe6trbWu3//fhmaPPfu3St902F7e7u3urpahtozarl5Zn9/v/QZM3/Y0JtOcunSpXTUyq5Yx67x2Jt0dsscQROvHTxXduk7Ozsp/pd/+ZePpCt/3GkLHhBIw1Ud8Sqdq+qDWE7xyMeu+caNG8kPtCk/kFflYjz16Whd6W1Q32Jd+FUHuqxDeXC0KyQjssc+C7WJA72eID6G5SSD4uPYRvnycriq9iHmibKD+v/06dMy5pCoW5wxM82nGhqSjJkJBs1R0vV78PrtdSh2o8mvdKXpd+X5TW2cyMP8dju/PQ/8Pj31AVfFV6F8sQxtx7qjzLEdyajfjUdWwgI/eeNv4tMO0JbayyFe+SgjHQBySRbqjb9ZH8txVR/UPlCX4rnGfkaIVz8h5qMdpRFPWH3HSSalCdIkO/F1bdfJDrGP5CFN+ol+ZFA+Y2aBOI/BO3pz5nj27Fl651os7Om997lz58qU0WHnt7W1lY7z62CHzk7z7t27SQZ49OhR//RAO8M3b96kawQ5kVdcvHiRO7kMffsOWa8TCiOV2gHkanqn/v79+9Q29VGvQK7l5eWUxslCYdgqTypoh+N8OH/+fLoK6qAM6cqTc/Pmzd7u7m7yk3dhYSH5AT1Jp4pHxsKIJ//e3l66xjKSUeN669atSrmhTnbGibqlw42NjXQVUVfxBMSYWcSG3pgxwYhiBKsMdARDLcOpo38MEIYZwyEn49IGHVHTfh2DHmQwxhCPvmUYqTfKFh8Ecjgap3+CvPSNhxBkjPVHeIgB0jkiv379egpHMKZtP3ykXR503r59m8IHBweNckMu+4cPH0pfPeiIfp21DxPN/GFDb8yYYFQwiBiiOmMG7Ewxlhh8dsgYCgwQO+pRwMjwwR51akdfxcePHxvTMcZ6CBEyjJQdBA8tyHL16tX+Tlvw0IJ8tBHrz2HXzekGRKOsd/wvXrxIdbSFUwx0TNmHDx/WniY0yd708MSDx8rKSuob42/MLGNDbzoLxk07MxmRNses8RgYCGuHiyHHAGBEolHHOGGIMFh16AMzDL4MLwaGHbXqoh19ENYkKwaKOvQKICfuMun77du3y1A1yITBih+sEY79QS7pIcKxO33XEbsgr+obdEpBWZ0sRIjDAA/akecgN0YYp+P9KupkV1jy63QAnWsONNVrzExR3AiVNCQZMxMMmqPFAp7y4PQxFRQGrB9f7GT7flyxgPc/fMPhJ05hyhaLfSoXyxIf2yMtJ7ZLXhHL4URen/zUAwrjkIkr+SgX21L+HOkEl5ehz6B6cfpoLebL9RDzU0eetwlkULsiyqi6Yxu4Kt3keXCMZU6d7BDngfpRpRf5kd+YWYD5GPmMf4rIY3CcVZNkzEzgOVoNO++XL1/W7vZnFXbPdUfsw8KJR75LRy/DfP9gzLySr40+ujfGnDoch/MaYxLwwMAHeBEM/5UrV8qQMWcL7+jN3OI5ehwMGt8PwOrq6szv6jHKvIeftKzMjcj6+vrETguMmXXytdGG3swtnqPGGHOcfG300b0xxhjTYWzojTHGmA5jQ2+MMcZ0GBt6Y4wxpsPY0BtjjDEdxobeGGOM6TA29MYYY0yHafx/9MYYY4yZP6Jp9x/MMXOL56gxxhzHfzDHGGOMOUPY0BtjjDEdxobeGGOM6TATM/T81vO1a9fKkDGnz7t379K7KhxzkzDzVPBLb5cuXSpDp8MsyGCM6TYTM/QPHz7sPX/+PC2mw8DPVBozDVZWVnqPHz9OH6VsbW31FhcXy5RD1tbWent7e2Xo5OE32PWTssYYMy0mYuhZsO7du5f8T58+Tdc28FDAb1EbM2mYW/v7+73Lly+n8NLSUgrPEsjEg4gxxkyTiRj6R48epd3R+vp67+XLl2XsUTg61TEqx5U8HGiHRZyOVIlXvnikqWNY8nH1SYBp4uLFi2l+sasXxN29e7cMHX/dpDnK/CSNq+Yi8485F8Oaq5qLzFelN81PzWXcwcFBGXtIvE+ibNSH0/xvOu6P9ce6JL/uNclLP0D6kAy/8Au/0JjfGDMnfKqhIekYhYFP19evX6dyxc4phQXp9+/fT36uxQKc/Mov8vDq6mo/L/E4tWVMnCtVMA/r5k2xk07xzDFg7mmOEic/+WJZ4vMwkC/WRd35fSBIIw8wv+P9IL9kl1z4cWoPP21WQR1KQ1bJBbFvoDakD4VFXX5jzOzCfRqpXSnzjHWwQMQbn0UmLgxAXVWLHuViOyxKcRGNi538dYunOXu0naPMKfJqLgnmaW6cczTvBHVFY1xlbJvmKm3GOU551ZcT5c3vjWjMc2I5rrH+JsMd9SFs6I2ZP7hPI2Mf3e/u7vaWl5fTkR6uWNyOHN9zjAgcmw6CvAsLC2WoXRljBrG9vc2s7xVGq3fr1q0y9ii8Ly8MaX8ex3lLOR1Xa34Sfvv2bf8bAMExd2FYy9Bx3r9/X/rq0SuDUaEfb968Sf4PHz40HvMbY7rPWIaexfDzzz9Pi6hc8bR/5Ot7Ges27/XIW/WO/9y5c6XPmPbk78n58p4H0Tr0QIChjO/2meMYTgzw9evXUxph3q/H+S3j3NQG6N7IIZ46Xr16leQYlY2Njd7m5maqi6/6nz17VqYYY84iYxn6Bw8epIUvws6IHRBpgrC+ygd2PSxquQG/efNmekhgQQWulPXO3owC/6NDcwn4aJT5VAWGWh+dYSgjV65cSf99VIadeZo/kFI3DwjxY78q8jmOUefBgA/g+B8ryMcDxzjwIBIfviPIr1MFycCJXN3Dx7D5jTEzSLEQVNKQlOC9H3nyfLxHVHxMi/nJIxSvuPhRUHy3qDhc1btPc/ZgLjSh9+GaN3E+kaZ48vDeuTCy/bj8PTRx8Z14Hia/ysa5XjVXY9u0KbnIq3hcvDcUhz/KWfWePqbn+aKcqpe4eN9RXtTlN8bMLtynEf96nZlbPEerYefNf3eNcFox6LTBGNMN8rVxIv+P3hgzG2DQeR0Q4bXEhQsXypAx5qzhHb2ZWzxHq+Er+/hB4Orqqj/IM+YMka+NNvRmbvEcNcaY4+Rro4/ujTHGmA5jQ2+MMcZ0GBt6Y4wxpsPY0BtjjDEdxobeGGOM6TA29MYYY0yHsaE3xhhjOkzj/6M3xhhjzPwRTbv/YI6ZWzxHjTHmOP6DOcYYY8wZwobeGGOM6TA29MYYY0yHGdnQ8wtZvAeIjrhZhZ/vvHbtWhk6/M3uWZbXjMe8zc9ZoO09cefOneTaMMn7jHqob1owR/hJ33kCeZF7EPn6d1IMM2bk073adn6NQi5Tk4yjzrlpz9Wh4WO8KhqS+ty/f//T6upqGToss7i4WIZmh8ePHyfZoqw55Hn9+nUZMvPAoDk6L/NzFmDut9EPOiXf+vp6GVNP2zrNaOzv7yf94ppos/5FqJdxHhfao13aHwRtap5o3rSZY8MyjEzD5I2MWm6S0H5kokf3xeRIv4P97t27MmY2WFtbS7I1sbW1VfpMV5nV+TkLLC0t9YqFqQzVc/fu3V6xAJehZtrWaUbj4sWLvcIolqF62qx/kQcPHpS+8Xj27FmvMN5lqJm3b9+WvsN5Q79evHhRxkyOYWQaJm9k1HLTZKKG/sKFC6XvEI5gODLiqmMjhauOZxSPi4txXRmORjgi0fFVXi7G58SjLNIxAMvLy/046lHZvLyOZchL2jSPmczkyOdnnB+MqWA8cZp3MQ007tFp3lEuT8vnp8KxXuUjDj9ti1hnLktE+Zib+OMcBuLxa45DzHNwcFDGHhL7GcuIOv0MQn3E0eeI4uWqdAT0DzeKDKobfag+6UHjKF2pHVA52tQYKgzqF0guuTqUj2vbMQPlefPmTRlzCHUorUonqg9XBe3s7Oz0Njc3j+RRGVzUEW2oTcKgsPQmos5wcSxv3LiR1mDiqZO1WGHqjXpRnCAsPVbNU6iTCYiXLE1ofGMbhOWkl5wm2alLcZpHU6Hc2R+jIakPxzvxOIgyOn7hSjimcyQTj2NIJw7ILz9llK+qDdLIiz+2EcsVkySlcYWYjyOVGAbCaj8vS52EgTL4lV9yKK85OTQmdTTNT4h+8pEfp/HFD/h1DBfrzMeePKpTc6huTsW8XElTuuYnqJzAL1ki5NPc5yq/ZBRVOpGMyCGZiKvri+6HqB+l5cR+An7Jr36qrMYAuObllJc0/LkMVXrJIb/ai22rPo2PdJTLTx6Rjw15VT7WRXnJmaN2SM/nlYhpEHVIvPLm8uBXPuogrHkR68ihzigvYfVFskjG2AZEWYmP6cTLjxzKB8RHPedh8ksmrkrjShuxrpwmmVRe8yCHdPLmugXqzPUiVA7qZKdNxVNW/kmQy3o0FMgzVoFg5IsuQjgqUAtEdNRBHnU+JyoMNFDyx3LUj5M/Kg5/HIg8TJ2SNU8D0iVHlEkTQANuTg7NgzoYR/JEJzSPotOYx3kEcbyr0urmDf66eUJ8nLukqR6uhKuIskTq5mFeV5QRf+xLLlMkytekn5xYZ1W/kEV1xXrUn8ioMkSq7m3I9VdXXxxT9UcyUXcVlKlLi+VFrqcoM21H+fO8kdiHvN9NMsU06SV3QN0aW0FanIN1eszlyeuqqlvkabSZ6zAySKam8uRlnuWyNOkF8jZElL1p7MYlr3fso/tisKix75rgCKMY4CP5eef34cOHymMmKBTaO3/+fBnqHfE3UXeM0ob379+n91+RYnBKn5kn6uYnx9R5Gu/WBnHz5s0j7w6Zn+fOnUv+69ev954/f578sLe313q+DkLHnrRXBfOVe4t5Sr42R5HM80FwpEh9k4D7PL+P4n12+/bt3qtXr5L/48ePU7nnWG8YF/pUt+bA7u5uOk4mXzxSvXXrVl9Gjs3R+aNHj1I4R0e2cU7kFAt/OqYmXzzSrSN/vVLFoLkyDIwDxPsEV0XbNRe982pgFDjqZlzaMo4dELzKQJexrmH0InLZ+RaheIhIY4WbhKx1nOj/o+emrlpcWAzrbgZu9vw9VNsFoM1CVsXCwkLlhyCTWrTN6cP7ehb8YeHm1Ls6HAu1jBXXeONiuMg/LtR17969tJA0zX2MGHkwPhiPNtQtLsTTLkZt0ALWFu6ffMEE7jdAfhZV2kX+aXyMBYy7+lT1zhYYN/IUu65klPTgdPny5SNyXblyJYVJxy+YIysrK6kOHijr4EM58jCPMAJtFvumedt2rrRFD7HDGCEZwRy9J0dfzNFh0Dt4PppGV8NSJ1MbaA95GU8xjF6aZN/e3k5jxboR6580J2ror169mm5k3TQoCSVoMYxPzroBWSy50aRQnp6JGwRP3rGtly9fpoeJuhs73hTszFiQJI/qmMSibWYDFuw4xlA3NyLkZ25xc+JYqAU7MoyW0jBcQg8DWnDYMdJ+3cdDgjqZm4NOG7g/JH9sN1+QHj582L8POJ3Ar50kRl0yPX36NBkoFqJJwf1DX6KeuUe534B2aV/6i7v9ScH46X7GINahcUHmaKglE31Abq0JrEvyUz/9aPMgqXaYR1qDmsYsX5u0CeLBou1cGUTUO/58zKI/Ql50xf0ByI+sPMCgE8aaB6c245pvqtABRnLYNXiQTG3RPSW9D6OXOtlpX/VtbGyk69QobqhKGpISRSdTHrmcmB7ffxRPRpXlCuUfiS8UU6Ycvo9TPH7Q+w0cbcV6lSeWKwa7/06oKS91QawfJ6hDccgY89AHc3Kg8zoGzU/Ix5hwPjfy8c7HHKd5ldeH03yCOB/xKy3KmtcPMay88f4A5l4uq4jx6pOI/SVeMuX3o9rN+1DXJsS+xDYVh0NnItYth3wQ44oH/76/SgbVU3U/Ul/MD3lfIe9nRG2KPAxxTOVXXyJRlpge4/P6c71yFYrHqd0vv/yyH0f+2LcqmWL90qHCKhPnuuaMiPE4zYvYrmTL5cFpTihMeziFVVb1Kz7OpZxYFieZFI/L50scA/LHtoTCOOkyl6lOdtJiG5I/H9NRyMvX1jaooZ8U6T/b20v+n373uynM9UyH//yfT2FzMox7M4yCFogIcSwS3Kj5YkGcbmDTTJVutXgOC+NQVZ8x88C468bEDP1Pf+VXPv3DlZVPf/CjHyUj93vf//6Zvv7jX/3VT//vz//8p3+8vV1qyEybkzb0GI+qNtmRAGm5oVeaaQajzE4mgi5HMfTonB2TMfMI90F+LwzLxAw9/KM7d5KRG7jTPSPh/+9v/a1P//gv/aXkN9PnpA09xGM4ORl3jFWe5t18e+IxJs7G2pjR4P6JfMY/ReQx+EqwJsmYmcBz1BhjjpOvjSf61b0xxhhjThYbemOMMabD2NAbY4wxHcaG3hhjjOkwNvTGGGNMh7GhN8YYYzqMDb0xxhjTYWzojTHGmA5jQ2+MMcZ0GBt6Y4wxpsPY0JszAb/9zJ+FnAb8pjh14/hdcNDvTM86/D43cuu3z+vgt87Vt1mEPgzz++KC3xCv+x3xNqAXjX3u9FvzkTbtjStTTtsxNt3Fht50Hha45eXlMjRZZPz4u9K4Fy9epEX15cuXKX7WWVxcLH31YEBv3LhRhmaPUR9AeBjb2dkpQ6OxtrbW/5vir1+/7s8D/M+fP09zIbK9vZ1cHZOQKefixYtJJq7mbGJDbzoPCxwL76TRruvZs2fpClpU54X9/f3SV8/S0lLv8ePHZWj22NvbK33Dcffu3d76+noZmizoTLodZnc+TZnM2cWG3nQaHaO+efOmjDmExVdpcUfIjooj13gkWwc7r9u3b5eho8j465VBPNInrMVf6TG+KX+O5CRdeQjjOMnI2xeEiX/69GkZc4jak8tRfbi6o2DJorrUtl5x5H2Jrz7oD8Tj5pg2qH2l0TaobtXbVBa5lA6xLRzhYeChD6Mdd+jII9lAdatvOVEmjTV1xLRB9akf5gxT7D4qaUgyZiYYNEf5PXN+Ix70W+fA78fHsvjJF39PvligUxp18Bv0OfzOvMoNgjzxt9WpGyc5cLGNuvxV0C+IZVQvV8jro4zao96YN/pj36mDNLUX64gQRz6c0vFTFzqT3tQGeagblAaqQ2HyUUdsP+ok5lU9XIFyaiPXTdStZBS0oXLkUdtVxPYi0gftSdfSC1eVieWbZKJMlAN/U33qL86cHfLx9o7edBJ2NOwkeYcKW1tb6Qr58XqxmKYreYvFslcsnv33qPlOeBD5jrhu1wvxlQJHtqPAsTV9RfY2R9js7sin9jY2NtJVoBfkgrzv6EknFeR5//598kd09IxTG5S7d+9eOs4+d+5cihMPHz5M7//Rlb6jQMbCQCW/rhcuXEjX2H6OdEk7jGF+itME7fN9BWUFbWn+LCwspOs4MKeQK4JeAL3HtqFKpkHk9cU5Zs4uNvSmkxwcHJS+enSkKWMyDDJYr169SleBcdPCGo3mtNjd3e0byniEW8eHDx9KXz06LudjsmmD7tEXupIbxrDVMYzedbT+9u3bdM3hgWdzc7MMDQcPQzzoVMnDXOGhC13nD1WDZKqiqT5ztrGhN52laYfLYsjuB8OiHf0wsHCza2VBbtq1TxuMIn3AWGKM9F62iaYHGwzEyspKqjPffU4DdN/m4WNYGBOdAgyCcUR/PDDFsdQ7cHbVnPQMC3U1fccBzFF0DfHbhTqZBlFXnznb2NCbTnL9+vVk0LTL1TEuhoyj7ngMPSo63qeupsX4/PnzR4wriz+ubgc+TH59mIXBl2HW7vHjx4/pyq6f+siro2gZAe0Y6YOOzJsekCYNDxXxv+7Fj8iGRWNMefqgvjLmOuHRx4f5wx36w7hG44jOMbajnMogA23g9Aojh/FUX3XkHqmSiYcXjQ9zjlMXHvDQ26D6zBmmePqrpCHJmJlg0BzVB2S4wggeya94XLEYp+uXX37ZjyN/scj2w/rgqYqYT464iNpQGq4wqkfKRKryV0F8zCfyeOoThfHqp0kvyAKxXfljXcShC4Vjm5CnqX5cHA+c2ox58EPMF8s1tR/zRGJ59YW283qUhkNHMSxdSD6R9ym6fM7kuiA9xsEgmUBhZKK82qmqL451rhfTXTT+4jP+KSKPwZFVTZIxM4HnqDHGHCdfG310b4wxxnQYG3pjjDGmw9jQG2OMMR3Ght4YY4zpMDb0xhhjTIexoTfGGGM6jA29McYY02Fs6I0xxpgOY0NvjDHGdBgbemOMMabDNP4JXGOMMcbMH9G0+2/dm7nFc9QYY47jv3VvjDHGnCFs6I0xxpgOY0NvjDHGdJiRDf2lS5fSe4DoiJs3kPnJkydl6Hg4Z1C6mQ26Mj9H5d27d6nPXE01o+ro66+/7l27dq0MHYW1YZrzLM5nuTpZxoE66edpU3Ufy33zzTdlrm+pixfTuC+a5sPMwMd4VTQk9bl///6n1dXVMnRYZnFxsQyNxvr6eumbPsiOzI8fPy5jjnOS8pjhGDRHpzE/5wX6itvf3y9jJsvr168b75t5YBQd0WfKxHkl0Alp055jrElal5C9Tp5hmOV1Lr+PQWs3acNAGdy07otZgT5GJnp0Xyi9Vyhw5Kclyu3s7JSh6fPs2bNecVOWoePwdD7JJz9zuow7P+cJ+jlN7t27V/rml1F0tLa2luZRFUtLS73iQaAMnQwXL17sFUa69/z58zJmeNgBv3jxogzNB6zd9Htzc3Oo+3na98WsMlFDf+HChdL3LfGoJQ7InTt3UhzGFD+TTUaXeB0bka7y+fGI4nGxbh07qY28nOK55hCPLJS/ceNGuoEUF9MF+YjL69MRHnmV7oeG0yWfn3Fs4nEr44jT2OZHscwnlZPT2GpuRZfPAYVjvcqno0rNf4h15rLkqPzTp0/LmEPiPMUJzdN4n8V5GstIJvJzX3B/VMmj/lGPyhIX24jU3eNN93Esg5PMw7YNHz9+7KeRTwzSe1OdENORARTGxTHWGGhu0XZbFhYWSt8hse+4iOqnLdrnury8nAyg4kHyAFfC0i0uzpF8buFiPYqLfWoa27ZsbGykq+a6+i3ZkEHtVukz6glZom5AaapP/ZTcoq7+maLc2R+jIalPfqRCmXhsRZjjLCAv4WJCJaejIq7y6+hLEFZ9lIn11dVNXfhxHLPl5aLMOobTESRt1eWFQemk0T7p+HFK56p+msmAfpuoGp84P6OffOTHaezwA37NkVinxpk5BuSpm68KV+XVvFK65iWonMAvWXLUB9B9oPain/bIF+ep5iZXyUUexUeZgDxVckhenOpRnapL7QP54xipXvKqHsKqV/okn/yUJ/8obce86iPxShP41V/KE451Ko1rbFttQZ0+kR8/jj5pXJChCupQPZJTOlRYZclHGKhX8sS5EmUGyUO8ZIltcFX7ShcqB1xVJvZJMimvZCZPFcipenIoJ1lUp/quMrF/UT9RPhHHMuYF5Y3y4I8yzArIFDkaCuQZq1AnoxNRuYIwZXIFinzSoDzy5zTVDQxCLEedmkR5u3FgIealjnwixPS8LH7Jn8tIX2ZtMsw70nUdjB95ohMaq+g01vlYxXGuSqubL/hVLp/z+fwgTfVwJVxFPucEZWJ9dfcYxPsjl6OuXC5TnRyQ563Si9qvGiPpN+YD0qSjSByTYdqu6mtdv2J8U53SJ3F1+oEmfdaNgaCvpMtRVuSyAXmoO29TSOZIlCdPj/quSpMuInmfos6AtKqxhao+CcpJlryN2AehPLEPkVgmr69Oxrq6ThNkjYx9dF8MADX2nTg4ODh23KUw75WKwUtH9RyF6FgrhyOTqtcBTXU3oSOYSVFMgN758+fLUO+I38wGTfMzT+O93yBu3rx55H0mc+DcuXPJf/369SPvSvf29iY2J3RsSntVfPjwofTVo6PKpve53Js5HEtyvDsN3r9/n961xnHY3t4uUwdDfyb5XU++jgzSexXkRcevXr0qY44yCX1GnTHPBPrMx5B1FviGgHL0BzeJ9ZBvFuiv6qpasznqlgyTRG1evXo1XXN2d3fT6yX6igwR5syw3yUUDwBp3KhPx/vzwtT+Hz2DXbWgaBLcvXs3TVIMft2kZ8JW3SyD6h4E7+QmAZP3zZs3ZeiQaUxoM3mYK3GBbAuLJcZAiyU3vxZWrnEhvX37dso/LtTFx2/cL03zq8kYIfPKykqqgwecOrR40he942QhLXYyKX7S8H55FIOj96n0B51Pivhw1lbvOeSlDMYkGoST0meVAVOfeIiSzpgPkyBu2pg3GH/QQxIM86DUlgcPHqSr2svh3qOv6JqP9uKGEnm4J4Z5t0471Mc9zwPEKPP2tJiaoZfypUiUgnEmHr/iMfhCOyPBDcHNIoVy5cmsqe4mmIQscrdu3UphyjHgDFrVqcKgBwcW8vjV56NHj1KcmX0uX76cxj4+6be56cnP/OGGx8U5x0LOQqu0OLf1MKCHTHYbtD/oIyTqZBEddNqQ3xNv375NV8oyt2mr7sGGNM1hPmyS4URGFvGq+6rNCVobrly5ku7daBAHjYPud+SeBNIVMtAvDERbvTchgyCa9DkpOFWK81rrGn3Cr3h9yAbjnDpRJ6cImvPxNIb1kLkU74NJwX2DbUDHdejeou9VD7fISh1x7Wf8Oe0DfeTHPADVx/gpbm4oBqeShqRE0dGUR66KYsIdyUNY8YXi+/HFYKV4UL3FBEnh4sbo58OJuroppzjKRjn1fkVh0nBqX/E46ottkCdPh9ieZKYdxVF/7IPymPFBn3XEca/LF8cJRzgfq3ye5vMAR56q+nDIIfK5orQoa14/xLDyas5GYvuSW/M0tiE/faUeworjKqIssTxEPUXiPYOLdSBT1AF1QN5n6sjzxfbpZxwXpX3xxRf9OFybtqO8GkeheJza+PLLL/txeZ3RT/7YvnQd0+WPfanSRSSmUUcV+TwUud4IC8Xluv7BD37Q9xNPusL0Nx9vOYhyxDrjOFWNbSSm5S6SywH52EDME+XT2Ef9q7zGIOpO8ye2obhZAHkiR0OBPKMxs8ZpzFEWghziWAxYOPKFmbh88ZolkJ3F1MwHPynm/M/29pL/p9/9bgpzPc3wb3/nO0fCv7OxkeZVXf6m8O//8IfJb8bDht50hpOeo9o15MTdQm7olTar2NDPFz/9lV/59A9XVj79wY9+lIzk733/+6d6/eWf+7lW+dpef/bjH5c9NeNgQ286w2nM0Xh0KSfjjtHM02Z5Nx+PLm3s54d/dOdOMopNO+OTCjOHfrHwE+bKXPqttbWR6zOTgXGIfMY/ReQx9EWrMbOK56gxxhwnXxun9tW9McYYY04fG3pjjDGmw9jQG2OMMR3Ght4YY4zpMDb0xhhjTIexoTfGGGM6jA29McYY02Fs6I0xxpgOY0NvjDHGdBgbemOMMabD2NCbzsKfgYy/Nd2WUcsZY8wsYkNvOsmlS5dK33CMWs4YY2YVG3rTSfb29krfcIxazhhjZhUbenMm4Dged+fOnRR+9+5dPw5XB0f4MV880mf3T9yTJ0+SM8aYWcSG3nQejPPi4mL62cbt7e0Ut7KyksK49fX1/gNAzr1793qPHz/u5yMMGHb8xG9tbaU4Y4yZRWzoTad59OhRMsjxSB7Dv7+/39+l7+zs9F68eFGmHuXZs2e9tbW15F9YWEhXIQNP3cpjjDGzhg296TQY8efPn5ehQz58+NDf4csNejfPMf3m5mYZ6iXDrqN7nDHGzCo29KbTvH79Oh25X7t2rYzp9c6fP5929G3gSB9Dzo7//v37Zewh7PZ5SFhdXT1SvzHGzBI29Kbz8F6eXb0+mFtaWkrX+F6+7h09JwI8LFy8eLGMOSR+gOd39MaYWeazYkfyqfQfgV1MTZIxM0HTHOVYXbt2DPXy8nLyc2TPMT1f3eMXfHDHcXw8hqf8gwcPkrEH8hPHDv7WrVu93d3d/msB4vOHAWOMOQ3ytdGG3swtnqPGGHOcfG300b0xxhjTYWzojTHGmA5jQ2+MMcZ0GBt6Y4wxpsPY0BtjjDEdxobeGGOM6TA29MYYY0yHsaE3xhhjOowNvTHGGNNhbOiNMcaYDtP4J3CNMcYYM39E0+6/dW/mFs9RY4w5jv/WvTHGGHOGsKE3xhhjOowNvTHGGNNhRjL033zzTXoHgLt06VIZe8iTJ0/6abjT5Nq1a72vv/66DH0LcVHG6JT/3bt3Kcx1GjTJgNzmdLhz586xOT1J8vtDjvguEtcKHPqdNHX3+SCQZRrygPptzEzAx3hVNCT1efz4ccq3vr5exnxLVdxJQvvIdv/+/TLmKPv7+ymda0Ryk1aVPknqZFhdXS190wGdTLNfJwW6myTonToXFxfLmOlBO69fv05+xoMw91NXQaez1D/pfBbWKWMmTb42jn10X9wwvZ2dnZnbkWxvb/eKhbsMtYdyUBjCdD0Nnj17Vvqmw+bmZukzEfReGKMydHLcvXs3XV+9epWuZvqg88LIlqHTgV3/ixcvypAx02NsQ3/lypVk7G/cuNF4zM0RmY7v4jEbfo7ecKQx+XUUpzI6yuZINS+fHw0SHgUeVAaVrepDPIql/zEPYcnX9ogw5ot1STaFhXQS86hNvX5QmsJQ7LBay2SmD+MRGWZchdKj0xjHMnLcV5pjms9qV/Xq/ozzXOR1jvuwH+d7vMdB60N0tA/IrLa5Eo66UL4mYtsitlnXN7UjXQrJIVQ/8fi5Li8vpw1FrL9OB4RpS+NDWt08MOYY5c7+GA1JfTiK0/Ejx57xyDMeSeFXWMfVHJ3p6B+nesinONKVn7rxq4ygXeKAsvHYGz/tVKF6o5MMoHSuUNcHoH2lAfF5uIoqGaL8QD2xPDJGXcmPDNKR6tJ4kE/15v2aZ+jHpJEepw2ya+wYX8JxHg87rhDrJJ50QZlYfyyHP84x1UN+tam6qEd5iZOfa5PeYvtVUJfaUF9j3ZIXuUjT/CWeMHUrDaf8XFVvTmwT+aQ7oE3Jq3qryOWKfukDWdVObJP6o84Iq8/SAVfy4FdY5VSW+iSHMaC5KGpXyjxjFbq5BGXihBbE5zeRJmm8iQVhTXiI5eMNlZPXldcTiTcSkC/KmKc39UF5BX2PaVowcvI2IOoNaDP2KddL7qgr11HUS1Wb80rs46TIF99pofGSm/S40o84b0jT/OUa+5jfJzFvbAPyvGKQ3kiruw8gtgm0ofq4J+J9QXzMG+vO5cjLRpQW9Saog/joYpuijT7ysRG5rNSVt6l+4Vf7XAmLfIyMifMDJvrf64pJeex9vY7Nzp07l65w4cKF0jc5ONIa590z7+yWlpbK0FEG9eHixYvpewAdny0sLKQr4bdv3/YuX76cwm3QNwICmfb29o4dPypcLB6MaN8hi5kPigW7P256Tz/quGoOMt/g4ODgSJnCoPXevHmT/B8+fDhyrDwuHFvz6m5UBt1fN2/ePPIuG93EvOPAegXSm6CNOD64qvWB+5V1h+PzeHQfYRwKY5xezzQds3Ofs4bGNtfW1spUY0ZnooaeScmCEm96LTb5jTSphUbvtFgIuJmmQZs+fP7552kh5SHn+vXrvZWVlRTOF9xRuH37du/p06dpgeCbCFCdHz9+TFfTDcYZ162trXTvcT88fPjwyEPjxsZG3yCRZxIffPKemPpoFwM1LBh46hh0f2Fg8dMWjrbGvacE6xUGPf/GCKPMA9EgkAODzINB00fJPMiRjzWKd/NV0EfWC2MmzUQNPbC4cJNEcuO/u7vbu3XrVhkaD24ubtRJ3fh1DOoDBpjFVYadXcjLly/L1OFgsYgf4vDgQN08OMRdBTu4KIM+0Gli2noy4zPKuAJltBNkdxjhwVNpuAhz4v3798kvQ4UxGtQmcxKjW3cSNgge0vXg2nR/0f/Yt0nvcpGf9uOOHH1FedBL1U6c0wxAh9RRBXpU3Tq5gfPnz5e+Q9gs8DAmvdNe3YODMUNR3DiVNCQleCdEHlwxwcvYQ4qn22NxMb/eaRWLRD+OdKBczMc7LIVjflyeX3mpK7ZHuQj1Kq0qHfljuqjqQ4T4WFcejuQy5C6HvlW1GfWDLnLZo86kY/VD4XmFPkySOJdi3XonWjeWwxDHA1c1pjDKuMYycsgOce7KqT/qH046IC5vI+oHueMcVttcI7HuKheJMka95DrDVfX5Bz/4Qd9PfJQP2SN5Wuxblc7UXk6sR3lyvTF2sS7pHRSn/kY5pMvYx1wXeVvGAPMh4l+vM3OL5+hR2P3lu112w+wim9JmnSrZiePbF59QGXOcfG2c+NG9Mebk4Wg4f7+LMeRoHIOe/zEejoWn8VHspOEYOx6hC/pjI29MO7yjN3OL5+hR0EdkfX29/0EeH3rt73/71x5XV1en/hcYJwUPKvn/qKEvNvTGVJOvjTb0Zm7xHDXGmOPka6OP7o0xxpgOY0NvjDHGdBgbemOMMabD2NAbY4wxHcaG3hhjjOkwNvTGGGNMh7GhN8YYYzqMDb0xxhjTYWzojTHGmA5jQ2+MMcZ0GBt6Y0r4bXH+dCSu6rfHJwE/NKM2oiPenCyMMbo/SWhvlLnFbxV0cY5wz/FbBoIfZ9Jv90OePiroDh22oZO65m/dV9GQZMxMMMk5yu+B63fI9Rvj/I74tKD+vL34O+VmusTf9z8p9LvyGve26LfsuzY/9Nv7+i3+WaArus7ntXf0xhTwc65LS0vJz2+0F4ty7+3btyk8bfSb8PlPyZrpwS/fFQa3DJ0Me3t7pW84+JVB5mPX4JcV+RXFWaKrurahN6ZARl60PeabFPniQvs61tdRr46a+Y32PA2UHp2OQWMZOY5FScev41G1q3qJJ1985SDyOuuOO3VsGuWjLHXjz3WteFw8xiUfdekVS0wDlZFTvVF2HG3nRNnUD7VDOB4fKz7mBemOuBhfh+qI/VAcrkpOyMdZYwWDZFB6rhvJEHWPE+SjTD6GIi+Hq9OB8qLHHOKirmlT9QySQX2JTnVxje2RRj3SR2wzonSVlexyYpBsp065sz9GQ5IxM8E05yjHrNME2euO7jnSVBpxyBKPmiUb+ThqFLFO4kkXlIn1x3L44/Gp6iG/2lRd1KO8xMnPtUpn1KM61CbXWA9pko38UW7SiKOM6iGsevV6JfYhlwU/+YF8ql91AGViu6SpvrzuKKvKE6d42pM/J8qf64t21B/aISxincTLj8zK11YG8tO+yPUtGagDOdRPnNriWqVHwF/XNvHqt8pJt9QXw7ShugbJoPsjlx0oH8uRprrIr3Qh3anOiMpAW/2cBsfkLq/HyDMaM2tMa45yk2uRmBZaGORie3kajsUlX1Apo4VFi5IWIfqgNCCN8sBViy2QL29feWMbkOcVtBfrjORpLIBxEdTCClrso1N7MV/e36q0KmLb0ifhvE+5rgXtEB8deZv6HyE/7UWdgmTOnYj9i8TxaSsD+aIOquqFONZ53VGPVWlVcwTIp7kF+XzKw7HfTTLk40UdSgPCUefklRx5WdqgbGyrirb6OQ1if8BH98Zk8K5c782nSbHAcDcmp/Z03Fcs/P00HO+UmyC9WHj63xUcHBwcKVMsOr03b94k/4cPH9Ix46TgWPPGjRtlaDzof7F4Hul7m7G4fft2/xuHjx8/Vr5n5Th1Z2enDH0LcS9fvixDh/AqB53lx7CMSxw3HHnX1tb6x7y4Jmjv+fPnZegQZIZYL64J2tvc3CxDvdYykO/FixepT48ePUrhCPGUz2Wsg/LoRTrieuHCheTPId80YAwYc73GeP/+fW9hYSH5R4Exin2KDKufWcCG3pgACyUfCZ0WMs5a+Idha2srGVwWoYcPHx7px8bGRjIKpJGHj47GRe8rabfY0ZSx40H/WaSHhYcBFmfkWV5eToZM8CBCPIYT451DPB/K5e9p0Z/KrKyspDiMCQ9KVaBT8vPAFd8H5/CgQJ0xz7lz59K1yrDk6LsK+shDUaStDDwYPX369JgxZP7TV9XRFuRAN8jFGOYPD5E6/Y3LvXv30tgjA3oc52Gd+UyfNO5iVP2cNjb0xpSwMEYDUfeBzrRhAbl161YZOpSjjQGgDAsQLv/CW4uTXCQaV334xII5qE0eJlgQ8w8Zx+Hq1avJYGtnhgxtxoGxi6cgemCiPDuvQTvJ3d3d9CCkPtO+2uUhSaDHeHqBvsjLVbrjwWcQPEQgl8ogL4YyfpiXf2wo0A8PC+qjGEaG69evp/7GnTf9QE/D/u8AyjF/pPumB2UecKL+0AFySO5RYdwYQ8kwiQdZPShoHoyqn5mgUEolDUnGzASTnKPUlTu9f9M7PN7DjQt1VLWRUyz6/TzF4njsHW6sp3gwOFZGDtmBPHma+qP+4WiLK3F5G0rDITdOYbXNNRLrJi2Wob4ol+SJeXCQ54vp6CbKJifdxrKS84svvujH4XIdEI7lCIsYjx+QKcYjU04cn1wvQnE4yZ+Xi31VGm23kSFCPTmxLfnz9vIxzOemXB2xDeStGif6EvP94Ac/6PurZACFo0O2PG+sN59LTTJADMs/SD+nAW1Hakcjz2jMrOE5ehQWphwtok1pXaDr/ZsGkzJCGNP4IATEVY3JNPEc+JZ8bfTRvTEdgGNePsCLcBzKHwLi6DH/YzwcQ9Z9MDVv0E+ObSODXjucddDZzZs3y9B45O+x4cGDB43v6SdN1fcIzHteUZiC0uAfoyHJmJnAc/Qo6CO6uGOLR444jii7RDxyxdFfcxzpaZJHyvE1hNxJ7+arXh+c5RMd+h/5jH+KyGPoK1VjZhXPUWOMOU6+Nvro3hhjjOkwNvTGGGNMh7GhN8YYYzqMDb0xxhjTYWzojTHGmA5jQ2+MMcZ0GBt6Y4wxpsPY0BtjjDEdxobeGGOM6TA29MYYY0yHsaE3xhhjOowNvTEl/AIcfyMax6+7TQN+NUxtREe8OVkYY3R/Uly6dOnYuMtVzbe6+EibPMPAL75V/RIccH/ghqWpTnMy2NAbU8BidPXq1fRDEI8fP+4tLy+XKZOFn+7Uj028fv06+e/fv9+7ceOGjf0Jws/YTmuM69jb20tjvbq6msZdjjCyMAcjpC0tLZWh4/DgMGnu3r3be/bsWRn6FmTb2dkpQ+1hTm9ubpYhc1rY0BtTwO9W6/ezL1++3FtcXEz+k4DFFfLfjDfT4+LFi+lBaxbAsK6vryeDOMzv6PPgcFIwR5FxWLineLgxp4sNvTEFLPyC48nd3d0ydDLkDxbxmFdHszpqxhjkaaD06HTUGsvIcZyq1xXaTapd1atj1/jKQeR11p1IEE+9UT7KUjf+fGeqeFw8KiYfdSFPngYqI6d6o+y4KmMaZVM/1A5h6QcUH/OCdEdcjG/DxsZGuj59+jRdpVvJSn2E6XPebyGZSI+yxzTVJx1zjfU11R8hj+oUMS7qKyfqD7+ok8mMjw29MSVa7J8/f9778OFDGTt9WNj29/fTqwNgkeNBg6NbXiPcunUrLdA6al5ZWUlp7LDu3buX4oB0vQ7gOJj07e3tlEYZ6lI50tlJko5fxF0iRoJdJvrgtIGyPJBoEX/w4EHarRHPdWtrK8VH0CmvJegfsko25AHCpMkgkf/9+/cpHsdxMXEYBPJRF+3QT9JkuEiPsiCn+qL8ahu5c968eZP0Qh52obT5+eefp3B86KPvjAfx1Ik8gPzqX5UeBqEHTfoO+YOf5gNz5MWLF2XstyAvZcjDmDK2sQ50F3n58mXKC9H4tz2eRwbpFOj/wsJCCtNW3ekEcjIuysfcIg6qZDITolBsJQ1JxswE05qjhaFIdRcLURkzeag/OtoUeRoOWYqFNfkFZQrDlfykKx8URr2fBqRRHrgWRiD5gXx5+8ob24A8r6C9WGckTysManKCNPIA8bQfndqL+fL+VqVVEduWPgnnfcp1LWiH+OjI29T/SK7PCHVJtqb+RVSmqs4mfUnunKifHKXFegTtEx+d2h7UZ8kR/WY80GXEO3pjMngfWSySvbdv35Yx06FY1Lgbk9N7eu1kioW0n4aLrxaqIL1YTPsyHxwcHClTLNBp1wqcVuTH5ePAblo723Gh/4VhONJ36aaJ27dv979x+Pjx47EdMXBaU7VjJY7dZISP4NCZjpjjuMRxw5GXUwAd3eOGRfXrVCeHHT06pm6dqAjkZ2c8DIURTidA1KfTlDZIf/m9wS6dOqNe9M1LFbSZ62lUmcxgbOiNqYBF+/z582Xo5JBxxlgNC0fGMgYPHz7sH9sD74A5TiWNPFVfVg8LBof6aJdFehLQfx1fDwMPAxgh5MFYxONtvRPG+GC8c4jHUOUGFP2pjF418ABR91oHnZKfB6747rkNep1QZxx5mKBuHjIYRx13A3HIOEybtEN9jBvzoe1ROe3QXl6G+4WHy0FQhrHQq6DIqDKZwdjQG5Oh94hN/7VpmmAoeA8sMEBtFj29O8bp/bTQe325SDSu2klhLAe1ycMEi/Ik9cSOFoMtQ4YMuQGuAiMXT0H0wER5drukNcGOOb5Xpn21qw/lAD1ihAT6Ii9X6W7Yd/TITp+bHpZkxNE18yOHhxL6GXfC0fjqIz+ddKg+jGvV6UcTyIDBjx/M8T1Drr8oi0AO5I8PoWIcmcwAipuikoYkY2aCSc7RYvFJ9eGKRaaMPaTYwaT4YiEuY0aHOtQOLn83LJBBeYpFtf+OVS7Wg+x5GTlkh9g/OfVH/cPRFlfi8jaUhkNunMJqu053SotlqC/KJXliHhzk+WI6uomyyUm3sazk/OKLL/pxuFwHhGM5wiLG4wdkivHIlFM1PnKRfKwh9g8/xPpyPUPUk8pLriir9BTbUJzIxy3mlW5inGTIy+V9Ux9yfeftm+FAh5HP+KeIPIaOuoyZVTxHj8IOKj/6ZVfKsXZTWhfoev+MGYZ8bfTRvTEdgGPU/B0pxu/KlSvJ4OV/jIej1QsXLpSh+YZ+xv8CB4NeOxhzlvCO3swtnqNHQR+R9fVv/x8972v3w3vq1dXD/0ffFXi/G788X1z89v/RG3PWyNdGG3ozt3iOGmPMcfK10Uf3xhhjTIexoTfGGGM6jA29McYY02Fs6I0xxpgOY0NvjDHGdBgbemOMMabD2NAbY4wxHcaG3hhjjOkwNvTGGGNMh7GhN8YYYzqMDb0xxhjTYWzojcng19D4kZRpQN38HercEW9OF37Rj7EYFuYKvxBYBfHTmkv8Ql8+j3D8kuGkoV70M2tw3/CDTSIPN4Ge2uhqmDpnFn7UpoqGJGNmgmnNUepdXV0tQ9OBNl6/fp389+/fT+HHjx+nsDl59vf30xgMO6fW19dTGcYwh/EkbdpzifrVPnOKNpFrHMYtfxKor4uLi2VMe3TPDernOG2cJsgc8Y7emAC7r2IRKEMnw927d9M1/814c3JcvHixVyzqZag9/AwwP/lbxdra2onPpaWlpSTPixcvypjhYQc7D7/nT1+Lh6kyNBzcc/yM8yDGaWOWsKE3poQFbmtrqwydLPx+eoSjQh3F6shUR8vxyDYepyo9Oh1NVh3z8lBDOn4dPatd1aujZ3SjciKvkzxV6OgzykdZ6safH4sqHhePVslHXciTp8UyODFs2xDzSg9AXsVXHflKl3VH9VFGZGjSH2HaVpuUbQsPLZHYn7y/qp+2cbRz48aN9Nv+kkFycgX6iavTofQQnfQY42KfqKNubHOi3g4ODsrYQ6izTv9AG5TLZQbViWvSd+xfrEdtqw0cKH+TXFOn3NkfoyHJmJlg0nNUx3gc653m0T1yKI04jg3j0bKOEckX5Yx1Eh+PJSkT64/l8CODUD3kV5uqi3qUlzj5uUquCPWoDrXJNdZDmmQjf5SbNOIoo3oIq170onzyq+5R2o55yUMYyKP4vG3JRh6Nk9KoI7attqBOf1ypQ/VQBn8d1Kt6JJt0qLAgr9qhXslDnPxRZoiykKaw2sSvslxVv3SBDEB+yUU+0oC2VCd5c/3mxDppK/aHtCh7JOpCskmeOtmgqk8CP+kqE+uUbKTlupg2UUY4GgrkGY2ZNSY5R+PikC900wDZo9OiCXkajoUiLlQQ5dRCwhVYXGIfSNMiw1ULF5Avb195c13keUVcDHPyNBZCLYagxRCIp/3o1F7Ml/c3EmUcpu1cv0BYuhB52230Rzt5PZFczlhHlVwR6iddjrDI+yvZqTNvU0hmkfe3SYd5WfxKi+R9inXk7UWoP7ad9yFvP5LLkvdD5LLlbUQG9Z04Ib2fBFF+8NG9OfNwFKijStzm5mY/PE2Km567MTm9p9fxaLHI9dNw+XFsDunFwtJ7+/ZtCnOkGcsUC1rvzZs3yf/hw4fKo8tR4UiS495JQP+LxfFI36WbQehIl7GbFMVCXvoO4Xg2jxsE8jCe0n/OJPQXdfbs2bMy9lAnCwsLZejosT7fEDAPNO8nwfXr14/of29vr3f+/PkydAhH2cvLy2VoON6/f1/6hgdZBtFWNr0OYVznARt6c+Zh8YuGhUUTo4n/pNFC/PHjx3QdBr4vwGCwAD18+DB9KCY2NjbSAwxp5InGYFQwetRHu8WupowdD/o/ymKOwVpZWUljxthNChbyc+fO9Rd2xQ0D8lAG/etdNUxDfzno8+XLl2XoW+gTMA+ks0m8Q6Y9HirpF+727dvpgzbQu+urV6+O9OGj0MPwKOTv9MUwspHv3r17SW/DPvSdFjb0xswYLLq3bt0qQ4cGoc3iRhkWH1y+e5ERlItE48qCB+xqBrXJwwQGSgv5JGCh3dnZ6RtEZKD/TZAXQ9pmx9YGtU27GC308+jRo+Rve7qQQx08QMZxnYb+cm7evJl22BpXrswv5MGv+PgR6oULF0rf8FAfJwiaZ1Ffu7u7SQecJIxK3h/+pwpj3+YhhYcOHrY0r/mfCcw1xrmtbLSLcZ/Eg/KJUgxGJQ1JxswE05qjxQ1/5F2b3tnpXdw4UAd1ydFWFbz7Ux7eIxaL2ZFysR7JGsvI6Z0gefI09Uf9w9EWV+LyNpSGQ26cwmqbayTWTVosQ31RLskT8+AgzxfT0U3su/xR3rZt57oQeT/k/+KLL/p+6o9pX331Vd9PW7F92othleMa68j7GsnnBG1UEeugbkF81AH1Qaz3e9/7Xt+PG6TDqCc5tZnLIX9eh/w4yRSJMlBW9eeyVRHbwq98dbLFePKDwjjl/fLLL/txqldh5Ip1oqNpQzuR2pUyz2jMrOE5ehQWpRwWGWhKM/PLT4p74Gd7e8n/0+9+N4W5nmb4dzY2joR/+zvfScatLn9T+Pd/+MPkN8NhQ286g+fot7CDyA03xp0Flvh8h0N8lfE388VPf+VXPv3DlZVPf/CjHyUj+Xvf//6pXv/DwrXJ1/b6sx//uOypGQYbetMZPEePgj6ii8Y9Hh3idAxp5p9/dOdOMopNO+OTCvPw+IuFnzBX5ho7+lHrM6OB3iOf8U8ReQy+LKxJMmYm8Bw1xpjj5Gujv7o3xhhjOowNvTHGGNNhbOiNMcaYDmNDb4wxxnQYG3pjjDGmw9jQG2OMMR3Ght4YY4zpMDb0xhhjTIexoTfGGGM6jA29McYY02Fs6I0xxpgOY0NvzAny5MmT9Heoq9y1a9fKXN9y586d5Jpok2cY3r17l+ThmtOU1sSo5Ywx4+MftTFzyzzPUWR//fp1b2lpKYW/+eab3vLycvIP06evv/66t7m52VtfX+9tb2+XsdMDuWF/f7938eLF5G/DqOWMMcOTr43e0RszA2DwMYIwzO787t27ycifFJJxWEYtZ4wZHxt6Y2YEdroY7Z2dnTKml47z2bULntRxvALgFCCHh4SYh6teCShtUH1ciRuEjuNjnSqLu3TpUoqrIn+FEY/0FVfXR2PMcNjQGzNDLCwspCuGD8P8/PnzFAaMKcf9HMnduHGjjD3Kixcv+nnW1tZ69+/fL1N66Wh/dXW1DFXXR7t6hTCIt2/fpvooz8kC3Lp1K4VxGPr4UBHZ2trqt00dDx48SPFt+miMGQ4bemNmlNwww71799IVQ6j3+4JdMIY+j28ir49TBQztIDDMr1696j179qyMOdylc0SvHTkPKS9fvixTj7K3t9eXM39n39RHY8zw2NAbM0O8f/++t7i4WPnBGrtmDCRGND8W13E/u+y2NNU3CNrjoSJycHDQ3+HLxQeBKmg7vqoYRyZjTDU29MbMCBybY/Ru375dxhwHI4gBhfjRHu/22Ylz3B3fdw+irr5BsHPHEMcyFy5cSPW1ge8GMOa0nX9MOKpMxphqbOiNmQH46IydPE7vu3N4f62P03S8HeGYG6NZZ3x5AOA4nf+OxzH7oPoGwasFHkxUx+XLl9MDQHwvX2WoJUfVl/jjymSMqaB4cq6kIcmYmWAe5+jjx4+T3FXu/v37Za5DVldX+2mUIz3GAXEKF0Y+OYWLHX7Ko3DxEJHKq52q+igT8+coDRfzUg/EOOUpDPqROIjt0g5XZK+SyRgzHPm94z+YY+YWz1FjjDlOvjb66N4YY4zpMDb0xhhjTIexoTfGGGM6jA29McYY02Fs6I0xxpgOY0NvjDHGdBgbemOMMabD2NAbY4wxHcaG3hhjjOkwjX8ZzxhjjDHzRzTt/hO4Zm7xHDXGmOP4T+AaY4wxZwgbemOMMabD2NAbY4wxHWZihv7rr7/uXbt2rQwd5d27d+mdAddZ4cmTJ71Lly6VofGhLvpY5dTvJh2dJFE28c033xyJz91ZRXOX+TJNmBtR32qP+UIazMr8MdUMGh/WiEnMo9OeB5PqRxWTXpdNCR/jVdGQVMni4mIqs7+/X8Z8C/F52vr6euk7GR4/fvzp9evXZWg63L9//9Pq6moZOkTtckUHefpJQ/vSA2OGXJGqOMaqalwnhfQzLMPO0WFBLs3dUeQbFrVXxazMH1PNoPEh/qTm0TSZZj80/1mDzHigx8hEdvTsBu/du5f8T58+TddIYSRK3yHaoZwkW1tbpe9kWVtb6y0tLaVr8SBQxp4ez58/L3293t7eXpJrENvb272LFy+WocmjuTNrMG7FPdIrFp4y5vSYlfljqhk0Ps+ePZuJeTQu0+wH91vxAFGGzCSZiKF/9OhRmujFzq/38uXLMraaO3fu9DY3N3s7OzvpiFLH2vHomwcH0DEOZXScqWMr/MovdMwqp+Ml/DxsLC8v94+84vEXV5WhDtWjI6S83rYg9yBivdKF5JF8SldY+pCecqp0qaN5QA9tj8diH6LO9bAmWdVO1KX0L/1FPSoNOXj4uHHjRmuZzhLoRLqKoH/pUvNGYVzdwzR1qc68PMR4zTfAT52aezENqFPl5EScE3K/+Zu/2feD2lW9TXMGYp25LBHN++g0p9UXXD73qmRGligPLso0LHW6hji+cmoLudWHQXqKEE8/o04op7ZyHSgPrm4+adwlf+wTjvqryPtXRaxL60ssE2VCDvJr3KQfU3K4sT9OQ9IxdAyvo5f8mJdwjCd/PLrHT1ngSIijm6pjU66KU3nycmQOxMnPlTRBmdgG4XjMhl/tAH7JG+vJZY/QpuTDxXJAemwzyqSyapN8SgPpBMgTZY2QT2nqZ6wnD+dQnjzRRagz9gGiztU2bahsXhf5om6izMOQyzYtRpVvWKLOAD0TVttx/nCNMpGmeUl8lW5UP055uWosmFdxbNVv8qgcYfLh1zwiva7tKLPa1xzP+xvzEi8Hcc5QLspMHsmSE9OoW3KqnMAvfTbJTHnSIcoEsVwV0idwjWXx522KXDbC6gd+OchlEqoTp3a4klf9IS22Uzem6keuQyCtSt85lJNOowxRL1HXUCcT7eDH0XY+ZmcR6UaMvaPnKermzZvJz9FLMUiVx/dNsLtnl8mTGDu7YoB6586dS8c41KfjZR2PFQObjpMhPoUSd/fu3eS/cOFCulZRdcx269at3qtXr8pQr3dwcJCOq3mSRB49RSLrixcvylzHQbZCr8nlT8gR9Ebf0Bkgd9Td559/nk5KBDK8efMm+ckjnUQka9QX8sR62oDe1YfixipjD6HOePxPP65fv578Dx8+TOOHnhhPkEyga9PYmG+pOyZlXvEqKs4B5o/uifPnz6drjo5GqVN5NzY20riw82JeMbaa68RzT5CXecQ9Q5v5axzKLiwsJL9k0k7u/fv3/fxaHz5+/JjCTTTNGerhtRM0vVKSDKwlwD2uOMoxv0XUc5PMbdeYQezu7vZu375dhg7D6B75Pnz4cEQe7kHWI6DteE826SkSx555BfRxZWWl35/Y5qD5xLygbNQhMC60BU1jQzmlV62T7MyvXr3alw3qZNJ9Qv9oW+NtvmVsQ88ElZHW4jDo+D6iG49yMi5xEowCkwSDMwwsUBhxQCbdMLrpomxaZAahG6oKbtx8gscwxlMPFBhTJjGGtIl8gYBx9Ai6sSIsNMgEeiACxrB4mj6iK930ZjJgDNCzHvpyOLLUQ1Yb4vzAwDG2cfyqxj8HA6p7PhpSYBMQH4yRfVILMXOQNacOZOAB5e3btykc56rQMTZyiTYyj7LGRFhDolGO9bMW0aZ0Gdejk6ZuPrFWRhlz0KnW0zooS764cQDqJS5uvCLDznEzpqFnoNh5xoWBhV5Ppm3QjdfmKX8Qeu/DbgfDOCwyYCwMly9fTnE8OcZFYFJw4+YTHHRDSy/okQUqv/mrkKx5Hu22JgULIQ94OTxk8LBhpgeGizHmOxe9twQZPXZB3INt0VxhvjFP2t63EeYmhov2mQOxfR70eIAlDcd9mRvbYUFG6sIQsOY0wVqgUyYelOODC3F8CEod8QG5SeZx1xhB/VWGTO1weoJMtEWcTkpOikHzib4jI7v6iN6Ro9N48pBD/3UiwJyO0G/ieVDQhgJGneNmTEP/4MGD/rGt4CZh4EirIzc85GdXILiZRllwuJGZgFW7yHgj1yEDFp/8VVf8uGMSH3roxlVd9BfDH29obgT0KOPPjUP4ypUrKZyDrPQzysfNko/RsCAbN7CgHRZ2xinWjbxxl8ONGY1RHfEk46yTL3pVMDdZZOM9w7zV0fog4sMgx/VakJlXzMG4uLaZ6+ShfRZnXLz/mCPIqbQon3axkoX7l/YHtYnM6KntaYPajidx9JF7perUrUnmpjVmGKife1P3RxwH4jhdUftt+jlp2swnHaujL9AaNmhjRP/IM+hkFD3H9WSYOW4yiolUSUNSorhJUp48XzFZ+/G4YkCPhKF4GuuH8UOsjzpiHtKgGPh+XHGjH2mrmADJKaz6VFZ5Ccd8xEeIo51I3oc8HaL8uJyqNvN6CUfUX5GH64h1Sr9Rn7i833l67lSPoDxjkEOcyig91hPHUGMTdTMMw+Yflnx8kFPQN8k/LpqbeX/inPrqq6/6ftqOOkOnuV7lzyEf6cqT9yHWg0MHUT7ajfUzL6IscppfeX24OG/ifIlzKubP+5aPi+TJ5yhEWeWUL8YpH201yRz7qjJcY7z6HolyqP1YJuok758c5GMR03M9RWgzpuXyxnHIdRBlz/PFNIjpShukj5gvxkUZkLetTPLj8jX1rEDfI8dXgpI8ozGzhufo8GhxniTUmcPCDFVpxJ3UAtwkWx2nLTPt5A8txFXJZUwV+do4kf9Hb4w5m3AMW/XHqDh65ii36oM13k3r1dg04RUAr+EiHNnXvfqC05YZ8vfewCs7H1mbkSkN/jEakoyZCTxHhyM/vp0U8chVTuTHy7iTPE7N2646Rs45bZnjOMl5N2+GgTkT+Yx/ishj6MtJY2YVz1FjjDlOvjb66N4YY4zpMDb0xhhjTIexoTfGGGM6jA29McYY02Fs6I0xxpgOY0NvjDHGdBgbemOMMabD2NAbY4wxHcaG3hhjjOkwNvTGGGNMh7GhN8ZMDP70pn5jnR+IIazfm+dHZtr8vn1XyPs/LdA37QyCH/S5dOlSGTJnCRt6Y8zE4O9rLy0tJf/i4mK6wtdff93b2dkpQ2eD2P9pwUPE8vJyGaqHh4GqX+UzZwMbemPMVNjf3y99vd7du3d76+vrZehsEPs/Lfjp3NevX5ehenj4evz4cRkyZw0bemNmAB15c7SKnx2wjn6VJmI8TlDm2rVr6Yg2T8vLkEcQbts29asd0rgKleE6CI7wVT/QhsI4tRnrVFqUPaKj6dj/KAtyKz6+QpAslIvxyoujrFAb0kGb1xFRftUV+xyP1CU/9ca6NT5KqyP2E5cT2436iWXG7a+ZMT7V0JBkzEzQlTnKb8PTFxy/e85vjxOn34znN9RXV1eTHxQPpOEoozr0m+vk47fVgTj5uaoOrm3bxq+8/GY64Fe9sR7gGsOUj7KpDqAN/eZ6bFN14iDKHom/4a42uCov6YoH8hGHbDG//LQjv3QLyKV2KK921cdI7D91xDGE2A/SpEfl01jIr/i8TYVFTKO86lU/VE9scxL9NbODxk8cDQXyjMbMGl2ao1pIIV+4WYTzRT46GYOYD+JCHokGBKijTduQ1xnTo2GrCsuQxrgqmurMZY/kabGs2o2OdvL6q8h1Qhu0BU3llaZ+R2RMo1OfY/1V5G3m8kXieOX6qZILRu2vmR3y+eCje2PmiA8fPqSPvIp7t+/29vbK1MFw/DrJj7IuXLhQ+tqhD/Levn2brjkcE29ubpah8eD9teCIujB4R/TGdwPkIR6dciwdX1MAx9RtPnZrgj6/ePGiDB1ycHDQK4zwEXmePXuW0nZ3d9MY5UfoQBhZB6FXBc+fPy9j2jGJ/prZw4bemDni/PnzI33kpfe2W1tbE/0oC4MVDeogih1k+ngMQxbfD2NgkA+DiOGdBKof+XDv379P4RwMPoaWdmXk9J786tWrrT52a4Lx4gEmvtvmAanuAY0P55CHdnno4eFD79Vh0PjT1srKSqqDh4k2TLK/ZvawoTdmjtB/XYtGI/rrePjwYTLwKj8OL1++LH2H9d68ebMMtQMZMPhRbna9GJhhHhqqwAjKwD99+rT/pT8GjDa0YycPDz9cJQcGX7CrxvCvra2VMeOxvb19pP3Lly8nWeOOXXLoA0f0JEP96NGj1JcoYxXUT73DnPLApPtrZoziqa+ShiRjZoKuzFHegdIXHO9C5c/DeodbLOTH8uT5ePeqcLGAJ6ew2uM6bNtccYqnXshlysOxfWSL8hUG/khYMsV2cFEe8uSQHvuU54ky4AA5YzvUAXlb8ud55cdRVySm0Uf5qQNinPJA1AV+iHmjPL/2a792JB5iuvy5fvPxmER/zezA+EQ+458i8hgc49QkGTMTeI6ePOw2P//884E7y9OA42deTQy7mzWma+Rro4/ujTHGmA5jQ2+MaQXvkPmKmw/E8q/BTxveTfOB33754Zsx5lt8dG/mFs9RY4w5jo/ujTHGmDOEDb0xxhjTYWzojTHGmA5jQ2+MMcZ0GBt6Y4wxpsPY0BtjjDEdxobeGGOM6TA29MYYY0yHsaE3xhhjOowNvTHGGNNhbOiNMcaYDmNDb0wN/FAKfzMax8+zThN+JEZt4fjJVaBd/YAM12nJ8e7du9Qu15OEH6BRX4dh1HKnBT8IhGuDxgI3zR/oyWUaRsa2+h+mzlFBT9yrwzJquWkxzfubP3xfSUOSMTPBtOfo6upq6Ttsa319vQxNh9evX9f26fHjxyktyjTv0Bf6RN+GYdRyozCJMb9///5Q82dxcfHT/v5+8mvMFZ4Uw8oUaav/cdpoC7qiDe6dYRi13LSY9P1NXRHv6I2pgCf9Z8+elaFer7gRey9evChDJ8/a2lqvWDjLUDdAv8WCW4baM2q5YWHHOokTjrt37/YKY1eGmqE9fmpXFGt0+mngSTOMTDlt9T9OG23Z29srfcMxarlpMe3724bemAqWlpZK3yHnz58vfSdL3RFpPOqXMVIYp+P+HB0LUy95VFavKYTq58rRq8rhkAcXw4BfR82UUXqb42fykDc/5lUdOMkakdxqQ3KrHqVH+YmL8ldBPfy+PUZWZYCjVZVTv1V33rbaqOq/6lA5IL8MKFfpRGHVq3hc1Jde8yitiiaZ4muiKmgrbxOkYznpqopBsqsNHWErf5NckbzuOO64Opr6IBnQncY8R2WivPmcE+ojrmocII4j9eT9qJOjlsON/XEakoyZCU5yjnK0xlHkNMmP7vMjUtrX0R7XeHRKmo5IdQxYBXk4BsaRJ/rztiG2Sb7C4CQ/IG8MSz+qT+CPskYon8uhvLRLHEQ5gHLKxzXKQR/VT+rDKZ14/NIVfsmdk7dJWG3GsVIbqhNiuuRQOvXIT33KB8qrfudh8ksmtUEa9eGPdeU0yaTybXQhmaUL4uWnnqgzwmqjjezkkWyMDX61Vwdp1IeL8wBiOMoCKgd1fSBO8dQlf4R46sJJXuLUdqxPfRP4VWfUcZQHqENjwzX2q4rYBtRqL89ozKxxknN00I01CeJCLGg3XwiI0wJVRVU9Il/sRF4Gf1UbsW3kIh+LF2ghyol9yMnTJJ8WxNyJWI4rYRH7mPcrLqaAv07uPC9t5PJQv2SVHqBqoZZMkVy+vK6qukWe1tQXGCRTU/lchroxzXVW1+9BspOmeZbrKIc02ojtgspFF+cJYbURiX3I51Ydsa5c3lwnkahH5SOuSi7RRqbYPvjo3pgBcIx2mu/nIxwlF4tj782bN2XMUTgWXF5eLkPH2d7e7u3s7KTjPx2PVlEsJqme/Jjw9u3b/bYPDg7SO9inT5+mo8ULFy6keKHjUORty8LCQrp+/PgxXYs16og7TehHsQAfkSd/xSPavAMeNFZNMCeLxb4MtWPU99KMbRs4ht7c3CxD9Ywi+yCY0/m3DB8+fEjtxPEapIO8D7w713E8blLU3RuD7m/uWV4pDYsNvTENyMhdvHgxXU+b4ok/LQQsRvG9H3KycFy9ejUZoya06LGosOhWwQJHHgw+C4sW+ytXrvRevnzZN+y0R/jt27e9y5cvpzyALPfu3Ut1DLOov3//Phn7c+fOpXBbI3MS0A+MR1t4EKpimLHKkYGAYR6gRJ1MbdDDV47eOfMwXOxKy9jjjCt7E+iRh8748Mp3NW3baeoDHx8yj7n3mh6O20I7dfdG3f2td/ZbW1vpnhwWG3pjauBGe/XqVfp6GDA6Q38EMyTc6IPgoYPF6NatW2VMr7e7u5viMNBNsKDJeDYtylrQqC8uRuxgeUB48OBBSsMRxoDoYQgdUSb+r4Um0DEgFzsz9E1d1IG8Ivoj+YJOHbi6h5i25CcUKysrR3ZT9DMuxhFOPlispWsMiGRqO1aQP2A+evQoGTTNyWFokqkJZGBear5RHn2jC/pPHRjaXNaccWRvA6dVzEXdozptaTOH6vpAXaoPIzsube4NZMjv74cPHyYDX3eCNJDiqaKShiRjZoJpztHiRkv1504UC1+rd3dt4P1iXj9Qv+K/+uqrvp+2o3y8s8MpHMvlUE7pkr9Y4I6UBdpQHGUipCGzyMOgsqqTKzJW0SSv4nGSI+ZH9jwOWXCFMerH4aKOJLPCeR8hlpfsUS/4QWEcZUSeVzqqG6sYj5NMqodrPlbyf/HFF31/VV9EnUwxvm6clE67OOWLepRMqlvxyNRW9piW6yQn5q2ax1VzAGIceer6QP6omzi+okneGKYeiOkq++WXX/bjyIceFKaOGFYZ9bEK0iOf8U8ReQyOCWqSjJkJPEeNMeY4+droo3tjjDGmw9jQG2OMMR3Ght4YY4zpMDb0xhhjTIexoTfGGGM6jA29McYY02Fs6I0xxpgOY0NvjDHGdBgbemOMMabD2NAbY4wxHcaG3hhjjOkwNvTGGGNMh7GhN8YYYzqMDb0xxhjTYWzojZlh7ty5k5xp5smTJ71Lly6VoV7v66+/7l27dq0MHf5s5zfffFOGuk/e/2nRdn4iCzKZ08GG3pgZhYVxZ2enDJkm1tbWent7e8mP0d/c3Ex+iA8AZ4G8/9Oi7fzkQeD58+dlyJwGNvTGzCh3797tra+vlyHTFoz+/fv3y1Cv/wBwVsj7Py3azs/t7e3e6upqGTKngQ29MTMAR5scL+PqjlzZGSkPcBStME5H0+/evUthXXHs8qrQkXesi3Ls1vDnu2HF4+KRLfmoS/2IacSrDI76Fd+2bfUl5o19okzbo2qVl4xRr7FN1Rnlr4N8yk++XBbqVR0aJ1AcbSi+Tl/qu3SBi3XVEcdMdcU+ky4kPzIoPrantDpiP+McEGo36mfS/TUVfKqhIcmYmaArc/T169efFhcXk39/fz/1izgodkzJAXkUD8Uu6dPjx4+TnzyEgfJyUOzu+vVHqEv5VJYreSkDpKkN8ksWII04yqgewqqXvkCUm7zUoTy4Nm0rr/pBPGHakF/1AHXEMOmSLepC+hb4qU914qL+JVuEdOVVP/Err/oL1Kv2SY/55SddfulLcuJUnvjYx0jsP1faFfglm+rlSpuKp0yUX36uUX+k4YB61SZ1qV4gnjB5Ypswif6ao6C3iHf0xpwyS0tL/ePlixcvpmsOu5kXL16kvOLZs2fpmBYWFhbSFYpF8sj1woUL6ZpDXcXC2ysW0lQX0P7Kyko6lgXSxKNHj9I7We2u4M2bN6ks+aiLOs+dO5fSBH2T3OrfsG2rL+gA6Dfpb9++bX1Ujfz37t07cpRPm8U6WIa+bVN1FoYlHT1D3O1HdDRNfvUT/8uXL5MfnS0vLyed3bhxI/VFu1bkAWRQ2Sp9cS2MYfJL/jjmdSDz1tZWf57A7u5ueoePPOovegS922dMNA70T/66uQS0obHM5wCgE/KoTx8/fkzXSfbXVGNDb8yMoCPMHH3wpMU4h8X8JD6+wjixWGOU5GQA2kDfJvlxYZ3hrYO26z4K0zGxHijGRQZRBp16o94wZOgOI0a7VX0ZV1/0lXZ5GIvQJg9ZUR4MMMa22DWndnGSXXDczoPKIDjyjw9pbRm3v6YeG3pjThm9g3z16lVadHNYfNndsMjGxVfvO9nlYoCnDcbp/fv3Zag9eu9L3+jLpMBgnT9/vgwNBh3Sfv7+HNnYWSPfKAaqioODg6Qv7VC1e82hDxpzvdOelL44ZcDQ8xAY323zUIF8VbB7V7ucroDe8XMywANCHXpYgmEemKY1P8y32NAbc8o8ffr0yBFxFdptxQ+c2P1gvGRMps3Vq1dTmzIaPHTED7mqII92lpNApxqSQUe+bUHHyKMPyrhi3HXkPA46qoeHDx/2bt68mfyM7a1bt5If0Jl0p37oCH/S+mJu8BAY2//888+T8ddDIzKgB64az42NjXQF+qLXMk3waoQ5Oswpz6T7a2oonqIqaUgyZiboyhwtFrnUF7nC8KRrsWj24/DHcGHgj4RVpjAq/ThcsUD3/eSJUEdMKwxCP0zdsS7qgZgHB3m+mE7fYrrk1FX+QW1LRzGeOMjL5uHYVt5nUFhxXL/88st+HG1GXVN/DnmibHmeKAN1AXliGRHjVO6LL77ox+GinskfydOiPjSOsT/SA7qJbROGWF7ycM11kutW/ig7+WJa3qbShumvOQ56inzGP0XkMXSUYsys4jl6dmDnVxiBtPM7qROMYeD4mZ3yMLtZY6ZFvjb66N4YY4zpMDb0xpiZh928rnq3PCvw3QTvmXnvPeibBWNOAx/dm7nFc9QYY47jo3tjjDHmDGFDb4wxxnQYG3pjjDGmw9jQG2OMMR3Ght4YY4zpMDb0xhhjTIexoTfGGGM6jA29McYY02Fs6I0xxpgOY0NvjDHGdBgbemOMMabD2NAbUwM/nsLfjMbxM6TThB9DUVu4J0+epHja1Q+lcJ20HPwgC060aSMvMy7Sc9WP1TSlNTFquXGhzW+++aYM9XqXLl3qj+WoeqM+6p0mbefWpMd+VpnGvXaq8KM2VTQkGTMTTHuOLi4ulr5D//3798vQdHj9+nVtnx4/fpzSVldXy5jxoT/Uub6+XsYMZpQy40BbuP39/TKmHaOWGwfmCG0yjjmj6g351Zdp0XZunfTYnxbTuNdOmny+eEdvTAXsBPf29spQr7eystK7cOFCGTp51tbWesVCW4Ymw927d3vFol2G2jFKmXEoDF3pG45Ry41DnC85o+rt4sWLveLBoQxNh7Zz66TH/rSYxr122tjQG1MBC6zg6BTDzwJw0sSj3whHixznxuNphXGk10F95KHunPxoljzkpUyVHORVmzpiVr2SMdanvNSlI+42R9MfP348UlaoLK6qP5DLwZFsrEfHtIRVF6hvg45wVV+VzolXP4Xqlbxt9CZifyW/xqiujNDrDLkmBulVMtbpHPL2cOhK/Ze+JL/0pPGQXn/hF36hMX+O0pSPclGWWE6y4Or6or7iqCfvV5yPs4oNvTENsNgsLy837tamBW3X7UxfvnzZe/z4Medz6aGExYjdFmHiNzc3y5xHYZG7ceNGyvfixYvezs5OmXK4oMUwC9i9e/dS3q2trTL2KNTBjpM8S0tLqW2R7wCpX3mRAVg00e8gbt261e8bZSkX43Es1LSRk8vx7Nmz3uLiYvLTR3T1/Pnz3qtXr1I9pFHX1atXk/5JqzMqGAr0T7mcKsOBfqlX+Sk/SG+RN2/e9MeZB0/kpx3C6Jb6pZsIcfSL/pCXOjBSdTTpVXOENOqr0w2nYJqjtLe6upp0v729nfwi3ltxPJhzlP3Lf/kv1+bPkc6ZU8xN2n/48GGSRXIwpwGd0Bfi1Zcqo53faw8ePEg7fsJc6+6NWcKG3pgGWJi0CDTtlqZBNEgRFjMWl3jCgHFgAYXz58+naxUscjIqLFrRoFQZGC1iLK75iQaGgsUUQ9UWLbLolHLI0OZomnYAGdDJ27dv06LMuGhnhXFgUR4G6mOxxpBIf+j39u3bKQ356pChUDn0F6kySOhXekQX6lcbNP/UHlAX8wTOnTuXrlU8ffo09VH9UR1Vhm2QXumD+spYfPjwIflzqENz8ebNm60eluN4DDOvhNpgTtFX2kcOxS8sLKQrkM48FG3vNXSn/p/m67xhsKE3pgUYx2EW5WnBosvCxc6uCoxB0w65zWIrWNxY6LTgR7Srw+C2hcWR9qmLekdFZQ8ODpJBYLGWk9E7CXidMA5ND2RVoPO6Bxl23FWGSrx///7YQ0td/knplQcCzVMeBsYZ82nCiQRzkvsqMuhe48RNJ1Ozjg29MS1gUZ6FhYoFmMWH4814ZMoujMWKY+FBO2QW8rboRIN2WdgEizjtxGP0NmDoqQ9GPSGhDsaD3dQwDy7TYpj+R4Y1fuiN/sZjdBkpyA1VhJ1s1YNq1cPGpPS6sbGR5inyMU9O8iGsLcim11P5g0/dvYb+KcdOX6djs44NvTEtYDHgveW0YXEZBDszjjejPLu7uykuHjFWwZE0C5eME4s/O8Wqd9s8POhot+o9JEerGPxosHVUKqhb9eO0YOoIvy06OUAejCNtX758ObUVZa97eMDQqc/IQDmMT1zAhwUZMA5qU3VxolJn/KOxRafSa5PeIoxzHL9Hjx4dOUqv4/r160d0JVmrjseH0WsTei8uF2EOc8oAmmNNehs2fxuoh/FregCputd454+BH+XVwqlRDEAlDUnGzATTnKPFbjXVL1fc2GXKIYVBPvL/7MehWKj77USoX/FfffVV30/bxeLTDyMbTuFYrgrKKx0/7UOUg/qpM+YtFv8j7ZI/lkFnENtXHqBsrA+inuv0SbvKQ/lIPk6EY34c5HXQVq436UJh5I19Uf8ieb0xn+Jx5IMqfYkqveV9if0lPYZjebUXiXlxIh9TyPMSzvPFsUSPOTE9z5f3gytx+XiIuvw5UQexrjysumO6yn755Zf9OPLFflNHDKsM11kCmSKf8U8ReQyOJmqSjJkJPEeNmV3YMecnTJwSDDp9MOOTr40+ujfGGDNRMOj8d8UIrwvm5Sv1ruEdvZlbPEeNmV34lmI/fHewunr4/+jN9MnXRht6M7d4jhpjzHHytdFH98YYY0yHsaE3xhhjOowNvTHGGNNhbOiNMcaYDmNDb4wxxnQYG3pjjDGmw9jQG2OMMR3Ght4YY4zpMDb0xhhjTIexoTfGGGM6jA29MTPMtWvXjv0m+bTht8dH+f1x5ETeacLvj/PnPet+h1y/V3+W4Mdi0MmwNM2tUefALHEa904b8vEadfyGgr91X0VDkjEzgefo5NFvbet3ydui3/qOvyE+DWgDV/V762eR+Hv1w6DfdGe8c0adA6fNPMg76ngNS16/d/TGmD78VnixYJah9vC744WBKEPTI/4amun1Ll682Hv9+nUZas/29nb6NbkqRp0Dpwm74hcvXpSh2WXU8RoXG3pjZgCOGTm+4+g5HjdyDE0c6IiPvDpWVTmugD+GyUeYsiovR7gJlc2PwhWPqzsapYza0HE7Tqhfkl/9UT71uY6PHz9W5s1fH6j+qNcoT14+orpIV15Q/2M7UKcXwuhBOolp+FUGJ4ZtG+L4xrFVuzjpOdJUJ8R+QZ3+4muVPC2HeM0B5aWcyNuIICdxlEVPXJeXl9NDoOJB9UOdPkU+DrhYj+Ki/qiPcoP0J1THmzdvyphDaIc2pkq5sz9GQ5IxM0FX5mjxhN8/QuXoO/rpI8fiCgP5Y9+JJ04sLi72wxwVxvLyc8yp+nJIi+1Sn45FiZN8OobkCsTHOkmTHFFm8uBXutJoB6hH/hy1qXTkIax+4pcM1FulV/oif11bqgunvpMPR5rkUP/q9EJ+1RNlFIoH8lLHsG1Lf+o3dRAG8kd9EK/2NA6xTqXRbmxbbUGd/igvBzEtIjlwaoOr8lbJojopq7bjmNKH2FbsGy5vj7wqK3mEygHXKv1JJuWVzFFPEdpTnZINVGeVnsZB9YujoUCe0ZhZoytzNF9oIvkCocUpQpwWMKAu5avKD8RrAcuhrlgf7Wsh0iIVneTL6yRNC1/ex9ivfGGP7eXkeSHWFWVo0qtoaivvD/6oz9i/Jr3EfE0yxfqHabuqzpguct011ak5EPNXEfWX19+k2zwtls37DqRRpk5/VW0RJh6a9JmXpd9RLyLvX5P+ItQf2877UCX7uOQ68tG9MafM0tJSeieqo714hBnhverm5mbKE48Qr1+/3n8/yTFgsXD0Hj58mMJVcExIPW05f/586ev19vb2Uv3F2tF3vJ8/TeqOPQfplaPWGzdulKHxGEcvOqZ+/vx5GTM+heEofYdwxJzHDWJnZydd3759m645k9Qf767F+/fvj4RBsre9V4aBcSqMd78urhcuXEh+MYr+xMHBQek7PWzojZkBMOIYBxaxlZWVMvYoLH7kYVFiEdY7RC2KLFAsKvnCJfQukYeCYidSxg7mw4cPfWPKdRYWrghGNj6MRKr0qvexW1tbyThPglH1QjnkQsZi11fGjg/jf+7cuf57e8UNAzordp/JmMe5NA39qX7m8sLCQuWHdRrjNvfKsHA/YMjpFzLoIW0c/UWYo6eJDb0xpwyLCYsnbGxspGsV+tiHhYhFLsKC9+DBg/5OhHTCV65cSWHg4YCFWw8GTcSFlgUdB59//nk6DdDCjOx64Mhh4eQhAR49epSudbvvYdEuUx8ysdPLqdMrpx0YqKoyozKMXgR5MB6TMgLUB/SZ8Wec0Tt+vqQfBe2g4wnSpPQXH0afPn3an9OcUJGmsVO/aK9uTOse9NpAnZwi8PCA40FCjKs/yPujj/EmdS+0ouhYJQ1JxswEXZmjvLPjHR79wek9X2Eoj8TxPlDh+M4PioU3xYs8DMWC1S+vuvN6RMwreUReD0TZSK+K4wqxr5KzKqy6c4pFs58nyp+3V6fXmE96yNuKclBH7DPlVQ6neqv0EvPlfc3T5Y9xbdvmqjjyixgfy33xxRd9f15nbA9/DFNfnf4Uhxs0jqQTH8tHotw4QXzVmILi8v589dVXfX+VPuN8ig5G0V+USeTziWtV/KRQ/eJoKJBnNGbW8Bw1Zj75SXHvXr1wIfl/+t3vpjDX0wj/zsZGZfpvra0dCefpTeHf/+EPk/+0sKE3ncFz1Jj55Lf+9J/+9Nf+0B/69Ac/+lEykr/3/e+f6vXv/tIvHQnvLi9X5mt7/dmPf1z29HSwoTedwXPUmPlDx+H3C4dRbNoZn0T4t7/znSTPLxaOMFeO1NuWrwufJvna+Bn/FJHH4EvDmiRjZgLPUWOMOU6+Nvqre2OMMabD2NAbY4wxHcaG3hhjjOkwNvTGGGNMh7GhN8YYYzqMDb0xxhjTYWzojTHGmA5jQ2+MMcZ0GBt6Y4wxpsPY0BtjjDEdxobeGGOM6TA29MbMGN988036W9UiD1fRJs+wXLt2rff111+XIWPMvOIftTFzSxfn6Lt373qLi4vJ37Zvo5QxxnSXfG30jt6YGeLixYu9169fl6F2jFLGGHN2sKE3ZkbgKRz35s2bMuaQJ0+e9C5dulSGer07d+6kfMTjz9ExvvLIz85fabE+juiVNx7Vk4c4Y8x8Y0NvzAyAUX38+HE6bnv58mUZe2i0b9y4UYYOj+mBfK9evUr+HB4U1tfXU561tbXe/v5+mdLrLS0tpXYE9X/++ecp7+7ubhl7aPxjOWPM/GJDb8wpox07Rhm2trbSFXLDDDs7O8ngb29vJxfRDj+Pb2JzczNdnz171rt7927fr/f+xpj5xobemFPm4OCg9A2G9/H3799PRpjjdnbkER4C4onAIHiQYPcfj/eNMd3Cht6YGWBvb6/0DYZdN0ftGPzl5eUy9hDiqWuY/xbH7p9yGPyVlZUy1hjTFWzojTllrl+/nt6HyzjrY7z4wZxgx63jeR2z5/CuneN47c45BYCPHz+mK+m0x3t4TgTU7sbGRroaY7qFDb0xpwyGmPfwGGeOz3X0zs6c9/d8jCfDDBhwHbVTjrB29sQJjvf1UMBunTyk0x5pvIcH2iOeOH2Qx0MGbdJ2/nrAGDNf+A/mmLnFc9QYY46Tr43e0RtjjDEdxobeGGOM6TA29MYYY0yHsaE3xhhjOowNvTHGGNNhbOiNMcaYDmNDb4wxxnQYG3pjjDGmw9jQG2OMMR2m8S/jGWOMMWb+iKa91tAbY4wxZv7x0b0xxhjTYWzojTHGmA5jQ2+MMcZ0ll7v/weCQaGcR8ZJ8wAAAABJRU5ErkJggg==;" vertex="1" parent="1">
          <mxGeometry x="1022" y="240" width="506" height="509" as="geometry" />
        </mxCell>
        <mxCell id="CIHnsiqsybDm5zCaYKHE-36" value="Login" style="shape=umlBoundary;whiteSpace=wrap;html=1;" vertex="1" parent="1">
          <mxGeometry x="200" y="230" width="80" height="60" as="geometry" />
        </mxCell>
        <mxCell id="CIHnsiqsybDm5zCaYKHE-40" value="Kelas" style="shape=umlBoundary;whiteSpace=wrap;html=1;" vertex="1" parent="1">
          <mxGeometry x="440" y="232.5" width="80" height="60" as="geometry" />
        </mxCell>
        <mxCell id="CIHnsiqsybDm5zCaYKHE-41" value="Diskusi" style="shape=umlBoundary;whiteSpace=wrap;html=1;" vertex="1" parent="1">
          <mxGeometry x="560" y="230" width="80" height="60" as="geometry" />
        </mxCell>
        <mxCell id="CIHnsiqsybDm5zCaYKHE-51" value="" style="endArrow=none;dashed=1;html=1;rounded=0;" edge="1" parent="1">
          <mxGeometry width="50" height="50" relative="1" as="geometry">
            <mxPoint x="240" y="680" as="sourcePoint" />
            <mxPoint x="239.71" y="300" as="targetPoint" />
          </mxGeometry>
        </mxCell>
        <mxCell id="CIHnsiqsybDm5zCaYKHE-53" value="" style="endArrow=none;dashed=1;html=1;rounded=0;" edge="1" parent="1" source="CIHnsiqsybDm5zCaYKHE-87">
          <mxGeometry width="50" height="50" relative="1" as="geometry">
            <mxPoint x="479.71" y="680" as="sourcePoint" />
            <mxPoint x="479.71" y="300" as="targetPoint" />
          </mxGeometry>
        </mxCell>
        <mxCell id="CIHnsiqsybDm5zCaYKHE-54" value="" style="endArrow=none;dashed=1;html=1;rounded=0;" edge="1" parent="1" source="CIHnsiqsybDm5zCaYKHE-92">
          <mxGeometry width="50" height="50" relative="1" as="geometry">
            <mxPoint x="599.71" y="680" as="sourcePoint" />
            <mxPoint x="599.71" y="300" as="targetPoint" />
          </mxGeometry>
        </mxCell>
        <mxCell id="CIHnsiqsybDm5zCaYKHE-69" style="edgeStyle=orthogonalEdgeStyle;rounded=0;orthogonalLoop=1;jettySize=auto;html=1;curved=0;exitX=1.015;exitY=1.029;exitDx=0;exitDy=0;exitPerimeter=0;strokeColor=#ff0000;" edge="1" parent="1" target="CIHnsiqsybDm5zCaYKHE-58">
          <mxGeometry relative="1" as="geometry">
            <mxPoint x="230" y="350" as="targetPoint" />
            <mxPoint x="150.14999999999998" y="340.15999999999997" as="sourcePoint" />
            <Array as="points">
              <mxPoint x="150" y="350" />
            </Array>
          </mxGeometry>
        </mxCell>
        <mxCell id="CIHnsiqsybDm5zCaYKHE-57" value="" style="html=1;points=[[0,0,0,0,5],[0,1,0,0,-5],[1,0,0,0,5],[1,1,0,0,-5]];perimeter=orthogonalPerimeter;outlineConnect=0;targetShapes=umlLifeline;portConstraint=eastwest;newEdgeStyle={&quot;curved&quot;:0,&quot;rounded&quot;:0};strokeColor=#ff0000;" vertex="1" parent="1">
          <mxGeometry x="140" y="300" width="10" height="50" as="geometry" />
        </mxCell>
        <mxCell id="CIHnsiqsybDm5zCaYKHE-73" style="edgeStyle=orthogonalEdgeStyle;rounded=0;orthogonalLoop=1;jettySize=auto;html=1;curved=0;strokeColor=#ff0000;" edge="1" parent="1" source="CIHnsiqsybDm5zCaYKHE-58" target="CIHnsiqsybDm5zCaYKHE-58">
          <mxGeometry relative="1" as="geometry">
            <mxPoint x="250" y="380" as="targetPoint" />
            <Array as="points">
              <mxPoint x="320" y="350" />
              <mxPoint x="320" y="370" />
            </Array>
          </mxGeometry>
        </mxCell>
        <mxCell id="CIHnsiqsybDm5zCaYKHE-58" value="" style="html=1;points=[[0,0,0,0,5],[0,1,0,0,-5],[1,0,0,0,5],[1,1,0,0,-5]];perimeter=orthogonalPerimeter;outlineConnect=0;targetShapes=umlLifeline;portConstraint=eastwest;newEdgeStyle={&quot;curved&quot;:0,&quot;rounded&quot;:0};strokeColor=#FF0000;" vertex="1" parent="1">
          <mxGeometry x="235" y="300" width="10" height="90" as="geometry" />
        </mxCell>
        <mxCell id="CIHnsiqsybDm5zCaYKHE-59" value="login controler" style="ellipse;shape=umlControl;whiteSpace=wrap;html=1;" vertex="1" parent="1">
          <mxGeometry x="680" y="230" width="80" height="60" as="geometry" />
        </mxCell>
        <mxCell id="CIHnsiqsybDm5zCaYKHE-61" value="" style="endArrow=none;dashed=1;html=1;rounded=0;" edge="1" parent="1" source="CIHnsiqsybDm5zCaYKHE-79">
          <mxGeometry width="50" height="50" relative="1" as="geometry">
            <mxPoint x="719.47" y="680" as="sourcePoint" />
            <mxPoint x="719.47" y="300" as="targetPoint" />
          </mxGeometry>
        </mxCell>
        <mxCell id="CIHnsiqsybDm5zCaYKHE-62" value="diskusi controler" style="ellipse;shape=umlControl;whiteSpace=wrap;html=1;" vertex="1" parent="1">
          <mxGeometry x="800" y="232.5" width="80" height="60" as="geometry" />
        </mxCell>
        <mxCell id="CIHnsiqsybDm5zCaYKHE-63" value="" style="endArrow=none;dashed=1;html=1;rounded=0;" edge="1" parent="1">
          <mxGeometry width="50" height="50" relative="1" as="geometry">
            <mxPoint x="839.47" y="682.5" as="sourcePoint" />
            <mxPoint x="839.47" y="302.5" as="targetPoint" />
          </mxGeometry>
        </mxCell>
        <mxCell id="CIHnsiqsybDm5zCaYKHE-67" value="Data diskusi" style="ellipse;shape=umlEntity;whiteSpace=wrap;html=1;" vertex="1" parent="1">
          <mxGeometry x="920" y="232.5" width="80" height="60" as="geometry" />
        </mxCell>
        <mxCell id="CIHnsiqsybDm5zCaYKHE-68" value="" style="endArrow=none;dashed=1;html=1;rounded=0;" edge="1" parent="1">
          <mxGeometry width="50" height="50" relative="1" as="geometry">
            <mxPoint x="959.47" y="680" as="sourcePoint" />
            <mxPoint x="959.47" y="300" as="targetPoint" />
          </mxGeometry>
        </mxCell>
        <mxCell id="CIHnsiqsybDm5zCaYKHE-71" value="&lt;span style=&quot;font-weight: normal;&quot;&gt;&lt;font style=&quot;font-size: 10px;&quot;&gt;1.SubmitLoginInfo( )&lt;/font&gt;&lt;/span&gt;" style="text;align=center;fontStyle=1;verticalAlign=middle;spacingLeft=3;spacingRight=3;strokeColor=none;rotatable=0;points=[[0,0.5],[1,0.5]];portConstraint=eastwest;html=1;" vertex="1" parent="1">
          <mxGeometry x="150" y="350" width="80" height="26" as="geometry" />
        </mxCell>
        <mxCell id="CIHnsiqsybDm5zCaYKHE-74" value="&lt;span style=&quot;font-weight: normal;&quot;&gt;&lt;font style=&quot;font-size: 10px;&quot;&gt;2.Validasi( )&lt;/font&gt;&lt;/span&gt;" style="text;align=left;fontStyle=1;verticalAlign=middle;spacingLeft=3;spacingRight=3;strokeColor=none;rotatable=0;points=[[0,0.5],[1,0.5]];portConstraint=eastwest;html=1;" vertex="1" parent="1">
          <mxGeometry x="245" y="324" width="80" height="26" as="geometry" />
        </mxCell>
        <mxCell id="CIHnsiqsybDm5zCaYKHE-80" value="" style="endArrow=none;dashed=1;html=1;rounded=0;" edge="1" parent="1" target="CIHnsiqsybDm5zCaYKHE-79">
          <mxGeometry width="50" height="50" relative="1" as="geometry">
            <mxPoint x="719.47" y="680" as="sourcePoint" />
            <mxPoint x="719.47" y="300" as="targetPoint" />
          </mxGeometry>
        </mxCell>
        <mxCell id="CIHnsiqsybDm5zCaYKHE-150" style="edgeStyle=orthogonalEdgeStyle;rounded=0;orthogonalLoop=1;jettySize=auto;html=1;curved=0;strokeColor=#ff0000;" edge="1" parent="1" source="CIHnsiqsybDm5zCaYKHE-79" target="CIHnsiqsybDm5zCaYKHE-99">
          <mxGeometry relative="1" as="geometry">
            <Array as="points">
              <mxPoint x="620" y="420" />
              <mxPoint x="620" y="420" />
            </Array>
          </mxGeometry>
        </mxCell>
        <mxCell id="CIHnsiqsybDm5zCaYKHE-79" value="" style="html=1;points=[[0,0,0,0,5],[0,1,0,0,-5],[1,0,0,0,5],[1,1,0,0,-5]];perimeter=orthogonalPerimeter;outlineConnect=0;targetShapes=umlLifeline;portConstraint=eastwest;newEdgeStyle={&quot;curved&quot;:0,&quot;rounded&quot;:0};strokeColor=#ff0000;" vertex="1" parent="1">
          <mxGeometry x="715" y="376" width="10" height="134" as="geometry" />
        </mxCell>
        <mxCell id="CIHnsiqsybDm5zCaYKHE-81" style="edgeStyle=orthogonalEdgeStyle;rounded=0;orthogonalLoop=1;jettySize=auto;html=1;curved=0;entryX=0;entryY=0;entryDx=0;entryDy=5;entryPerimeter=0;strokeColor=#ff0000;" edge="1" parent="1" source="CIHnsiqsybDm5zCaYKHE-58" target="CIHnsiqsybDm5zCaYKHE-79">
          <mxGeometry relative="1" as="geometry">
            <Array as="points">
              <mxPoint x="340" y="381" />
              <mxPoint x="340" y="381" />
            </Array>
          </mxGeometry>
        </mxCell>
        <mxCell id="CIHnsiqsybDm5zCaYKHE-82" value="&lt;span style=&quot;font-weight: normal;&quot;&gt;&lt;font style=&quot;font-size: 10px;&quot;&gt;3.LoginControler( )&amp;nbsp;&lt;/font&gt;&lt;/span&gt;" style="text;align=left;fontStyle=1;verticalAlign=middle;spacingLeft=3;spacingRight=3;strokeColor=none;rotatable=0;points=[[0,0.5],[1,0.5]];portConstraint=eastwest;html=1;" vertex="1" parent="1">
          <mxGeometry x="490" y="360" width="80" height="26" as="geometry" />
        </mxCell>
        <mxCell id="CIHnsiqsybDm5zCaYKHE-85" value="&lt;span style=&quot;font-weight: normal;&quot;&gt;&lt;font style=&quot;font-size: 10px;&quot;&gt;5.kelas ( ) (redirect)&lt;/font&gt;&lt;/span&gt;" style="text;align=left;fontStyle=1;verticalAlign=middle;spacingLeft=3;spacingRight=3;strokeColor=none;rotatable=0;points=[[0,0.5],[1,0.5]];portConstraint=eastwest;html=1;" vertex="1" parent="1">
          <mxGeometry x="500" y="430" width="80" height="26" as="geometry" />
        </mxCell>
        <mxCell id="CIHnsiqsybDm5zCaYKHE-86" value="" style="endArrow=none;dashed=1;html=1;rounded=0;" edge="1" parent="1" target="CIHnsiqsybDm5zCaYKHE-87">
          <mxGeometry width="50" height="50" relative="1" as="geometry">
            <mxPoint x="479.71" y="680" as="sourcePoint" />
            <mxPoint x="479.71" y="300" as="targetPoint" />
          </mxGeometry>
        </mxCell>
        <mxCell id="CIHnsiqsybDm5zCaYKHE-90" value="&lt;span style=&quot;font-size: 10px; font-weight: 400;&quot;&gt;6. Error ( ) (redirect)&lt;/span&gt;" style="text;align=left;fontStyle=1;verticalAlign=middle;spacingLeft=3;spacingRight=3;strokeColor=none;rotatable=0;points=[[0,0.5],[1,0.5]];portConstraint=eastwest;html=1;" vertex="1" parent="1">
          <mxGeometry x="490" y="460" width="80" height="26" as="geometry" />
        </mxCell>
        <mxCell id="CIHnsiqsybDm5zCaYKHE-93" style="edgeStyle=orthogonalEdgeStyle;rounded=0;orthogonalLoop=1;jettySize=auto;html=1;curved=0;strokeColor=#ff0000;" edge="1" parent="1" source="CIHnsiqsybDm5zCaYKHE-87" target="CIHnsiqsybDm5zCaYKHE-92">
          <mxGeometry relative="1" as="geometry">
            <mxPoint x="590" y="540" as="targetPoint" />
            <Array as="points">
              <mxPoint x="530" y="545" />
              <mxPoint x="530" y="545" />
            </Array>
          </mxGeometry>
        </mxCell>
        <mxCell id="CIHnsiqsybDm5zCaYKHE-94" value="&lt;span style=&quot;font-weight: normal;&quot;&gt;&lt;font style=&quot;font-size: 10px;&quot;&gt;8. Diskusi ( )&lt;/font&gt;&lt;/span&gt;" style="text;align=left;fontStyle=1;verticalAlign=middle;spacingLeft=3;spacingRight=3;strokeColor=none;rotatable=0;points=[[0,0.5],[1,0.5]];portConstraint=eastwest;html=1;" vertex="1" parent="1">
          <mxGeometry x="500" y="524" width="80" height="26" as="geometry" />
        </mxCell>
        <mxCell id="CIHnsiqsybDm5zCaYKHE-96" value="Error" style="shape=umlBoundary;whiteSpace=wrap;html=1;" vertex="1" parent="1">
          <mxGeometry x="320" y="232.5" width="80" height="60" as="geometry" />
        </mxCell>
        <mxCell id="CIHnsiqsybDm5zCaYKHE-97" value="" style="endArrow=none;dashed=1;html=1;rounded=0;" edge="1" parent="1" source="CIHnsiqsybDm5zCaYKHE-99">
          <mxGeometry width="50" height="50" relative="1" as="geometry">
            <mxPoint x="359.57000000000005" y="680" as="sourcePoint" />
            <mxPoint x="359.57000000000005" y="300" as="targetPoint" />
          </mxGeometry>
        </mxCell>
        <mxCell id="CIHnsiqsybDm5zCaYKHE-101" value="&lt;span style=&quot;font-weight: normal;&quot;&gt;&lt;font style=&quot;font-size: 10px;&quot;&gt;4. Error( )&amp;nbsp;&lt;/font&gt;&lt;/span&gt;&lt;span style=&quot;font-size: 10px; font-weight: 400;&quot;&gt;(redirect)&lt;/span&gt;" style="text;align=left;fontStyle=1;verticalAlign=middle;spacingLeft=3;spacingRight=3;strokeColor=none;rotatable=0;points=[[0,0.5],[1,0.5]];portConstraint=eastwest;html=1;" vertex="1" parent="1">
          <mxGeometry x="380" y="390" width="80" height="26" as="geometry" />
        </mxCell>
        <mxCell id="CIHnsiqsybDm5zCaYKHE-116" style="edgeStyle=orthogonalEdgeStyle;rounded=0;orthogonalLoop=1;jettySize=auto;html=1;curved=0;strokeColor=#ff0000;" edge="1" parent="1" source="CIHnsiqsybDm5zCaYKHE-87" target="CIHnsiqsybDm5zCaYKHE-115">
          <mxGeometry relative="1" as="geometry">
            <mxPoint x="370" y="520" as="targetPoint" />
            <Array as="points">
              <mxPoint x="440" y="520" />
              <mxPoint x="440" y="520" />
            </Array>
          </mxGeometry>
        </mxCell>
        <mxCell id="CIHnsiqsybDm5zCaYKHE-87" value="" style="html=1;points=[[0,0,0,0,5],[0,1,0,0,-5],[1,0,0,0,5],[1,1,0,0,-5]];perimeter=orthogonalPerimeter;outlineConnect=0;targetShapes=umlLifeline;portConstraint=eastwest;newEdgeStyle={&quot;curved&quot;:0,&quot;rounded&quot;:0};gradientColor=none;fillColor=none;strokeColor=#ff0000;" vertex="1" parent="1">
          <mxGeometry x="475" y="430" width="10" height="120" as="geometry" />
        </mxCell>
        <mxCell id="CIHnsiqsybDm5zCaYKHE-102" value="Alternative&amp;nbsp;&lt;div&gt;Event:&amp;nbsp;&lt;span style=&quot;background-color: initial; text-wrap-mode: nowrap; font-size: 10px; text-align: left;&quot;&gt;( Gagal Login&lt;/span&gt;&lt;span style=&quot;background-color: initial; text-wrap-mode: nowrap; font-size: 10px; text-align: left;&quot;&gt;)&amp;nbsp;&lt;/span&gt;&lt;br&gt;&lt;/div&gt;" style="shape=note;whiteSpace=wrap;html=1;backgroundOutline=1;darkOpacity=0.05;size=24;" vertex="1" parent="1">
          <mxGeometry x="190" y="406" width="120" height="74" as="geometry" />
        </mxCell>
        <mxCell id="CIHnsiqsybDm5zCaYKHE-103" value="" style="endArrow=none;dashed=1;html=1;dashPattern=1 3;strokeWidth=2;rounded=0;entryX=1;entryY=1;entryDx=0;entryDy=0;entryPerimeter=0;exitX=0;exitY=0;exitDx=0;exitDy=5;exitPerimeter=0;" edge="1" parent="1" source="CIHnsiqsybDm5zCaYKHE-99" target="CIHnsiqsybDm5zCaYKHE-102">
          <mxGeometry width="50" height="50" relative="1" as="geometry">
            <mxPoint x="350" y="460" as="sourcePoint" />
            <mxPoint x="240" y="450" as="targetPoint" />
          </mxGeometry>
        </mxCell>
        <mxCell id="CIHnsiqsybDm5zCaYKHE-104" value="Alternative&amp;nbsp;&lt;div&gt;Event:&lt;span style=&quot;background-color: initial; font-size: 10px; text-align: left; text-wrap-mode: nowrap;&quot;&gt;( Belum Terdaftar&amp;nbsp;&lt;/span&gt;&lt;/div&gt;&lt;div style=&quot;text-wrap-mode: nowrap; font-weight: 700; text-align: left;&quot;&gt;&lt;span style=&quot;font-weight: normal;&quot;&gt;&lt;font style=&quot;font-size: 10px;&quot;&gt;dikelas)&lt;/font&gt;&lt;/span&gt;&lt;/div&gt;" style="shape=note;whiteSpace=wrap;html=1;backgroundOutline=1;darkOpacity=0.05;size=18;" vertex="1" parent="1">
          <mxGeometry x="190" y="510" width="120" height="74" as="geometry" />
        </mxCell>
        <mxCell id="CIHnsiqsybDm5zCaYKHE-106" value="" style="endArrow=none;dashed=1;html=1;rounded=0;" edge="1" parent="1" target="CIHnsiqsybDm5zCaYKHE-99">
          <mxGeometry width="50" height="50" relative="1" as="geometry">
            <mxPoint x="359.57000000000005" y="680" as="sourcePoint" />
            <mxPoint x="359.57000000000005" y="300" as="targetPoint" />
          </mxGeometry>
        </mxCell>
        <mxCell id="CIHnsiqsybDm5zCaYKHE-99" value="" style="html=1;points=[[0,0,0,0,5],[0,1,0,0,-5],[1,0,0,0,5],[1,1,0,0,-5]];perimeter=orthogonalPerimeter;outlineConnect=0;targetShapes=umlLifeline;portConstraint=eastwest;newEdgeStyle={&quot;curved&quot;:0,&quot;rounded&quot;:0};gradientColor=none;fillColor=none;strokeColor=#ff0000;" vertex="1" parent="1">
          <mxGeometry x="355" y="416" width="10" height="26" as="geometry" />
        </mxCell>
        <mxCell id="CIHnsiqsybDm5zCaYKHE-108" value="" style="endArrow=none;dashed=1;html=1;rounded=0;" edge="1" parent="1" target="CIHnsiqsybDm5zCaYKHE-92">
          <mxGeometry width="50" height="50" relative="1" as="geometry">
            <mxPoint x="599.71" y="680" as="sourcePoint" />
            <mxPoint x="599.71" y="300" as="targetPoint" />
          </mxGeometry>
        </mxCell>
        <mxCell id="CIHnsiqsybDm5zCaYKHE-92" value="" style="html=1;points=[[0,0,0,0,5],[0,1,0,0,-5],[1,0,0,0,5],[1,1,0,0,-5]];perimeter=orthogonalPerimeter;outlineConnect=0;targetShapes=umlLifeline;portConstraint=eastwest;newEdgeStyle={&quot;curved&quot;:0,&quot;rounded&quot;:0};gradientColor=none;fillColor=none;strokeColor=#ff0000;" vertex="1" parent="1">
          <mxGeometry x="595" y="540" width="10" height="30" as="geometry" />
        </mxCell>
        <mxCell id="CIHnsiqsybDm5zCaYKHE-110" style="edgeStyle=orthogonalEdgeStyle;rounded=0;orthogonalLoop=1;jettySize=auto;html=1;curved=0;entryX=1;entryY=0;entryDx=0;entryDy=5;entryPerimeter=0;strokeColor=#ff0000;" edge="1" parent="1" source="CIHnsiqsybDm5zCaYKHE-79" target="CIHnsiqsybDm5zCaYKHE-87">
          <mxGeometry relative="1" as="geometry">
            <Array as="points">
              <mxPoint x="660" y="435" />
              <mxPoint x="660" y="435" />
            </Array>
          </mxGeometry>
        </mxCell>
        <mxCell id="CIHnsiqsybDm5zCaYKHE-113" style="edgeStyle=orthogonalEdgeStyle;rounded=0;orthogonalLoop=1;jettySize=auto;html=1;curved=0;entryX=1;entryY=0;entryDx=0;entryDy=5;entryPerimeter=0;strokeColor=#ff0000;" edge="1" parent="1" source="CIHnsiqsybDm5zCaYKHE-79" target="CIHnsiqsybDm5zCaYKHE-112">
          <mxGeometry relative="1" as="geometry">
            <Array as="points">
              <mxPoint x="630" y="461" />
              <mxPoint x="630" y="461" />
            </Array>
          </mxGeometry>
        </mxCell>
        <mxCell id="CIHnsiqsybDm5zCaYKHE-114" value="" style="endArrow=none;dashed=1;html=1;dashPattern=1 3;strokeWidth=2;rounded=0;exitX=1;exitY=1;exitDx=0;exitDy=0;exitPerimeter=0;" edge="1" parent="1" source="CIHnsiqsybDm5zCaYKHE-104" target="CIHnsiqsybDm5zCaYKHE-112">
          <mxGeometry width="50" height="50" relative="1" as="geometry">
            <mxPoint x="310" y="590" as="sourcePoint" />
            <mxPoint x="360" y="540" as="targetPoint" />
          </mxGeometry>
        </mxCell>
        <mxCell id="CIHnsiqsybDm5zCaYKHE-115" value="" style="html=1;points=[[0,0,0,0,5],[0,1,0,0,-5],[1,0,0,0,5],[1,1,0,0,-5]];perimeter=orthogonalPerimeter;outlineConnect=0;targetShapes=umlLifeline;portConstraint=eastwest;newEdgeStyle={&quot;curved&quot;:0,&quot;rounded&quot;:0};gradientColor=none;fillColor=default;strokeColor=#ff0000;" vertex="1" parent="1">
          <mxGeometry x="355" y="520" width="10" height="30" as="geometry" />
        </mxCell>
        <mxCell id="CIHnsiqsybDm5zCaYKHE-118" value="&lt;span style=&quot;font-size: 10px; font-weight: 400;&quot;&gt;7. Error ( ) (redirect)&lt;/span&gt;" style="text;align=left;fontStyle=1;verticalAlign=middle;spacingLeft=3;spacingRight=3;strokeColor=none;rotatable=0;points=[[0,0.5],[1,0.5]];portConstraint=eastwest;html=1;" vertex="1" parent="1">
          <mxGeometry x="380" y="498" width="80" height="26" as="geometry" />
        </mxCell>
        <mxCell id="CIHnsiqsybDm5zCaYKHE-119" value="Alternative&amp;nbsp;&lt;div&gt;Event:&lt;span style=&quot;background-color: initial; font-size: 10px; text-align: left; text-wrap-mode: nowrap;&quot;&gt;( Belum Terdaftar&amp;nbsp;&lt;/span&gt;&lt;/div&gt;&lt;div style=&quot;text-wrap-mode: nowrap; font-weight: 700; text-align: left;&quot;&gt;&lt;span style=&quot;font-weight: normal;&quot;&gt;&lt;font style=&quot;font-size: 10px;&quot;&gt;dikelas)&lt;/font&gt;&lt;/span&gt;&lt;/div&gt;" style="shape=note;whiteSpace=wrap;html=1;backgroundOutline=1;darkOpacity=0.05;size=18;" vertex="1" parent="1">
          <mxGeometry x="180" y="610" width="120" height="74" as="geometry" />
        </mxCell>
        <mxCell id="CIHnsiqsybDm5zCaYKHE-120" value="" style="endArrow=none;dashed=1;html=1;dashPattern=1 3;strokeWidth=2;rounded=0;exitX=1;exitY=1;exitDx=0;exitDy=0;exitPerimeter=0;" edge="1" parent="1" source="CIHnsiqsybDm5zCaYKHE-119" target="CIHnsiqsybDm5zCaYKHE-115">
          <mxGeometry width="50" height="50" relative="1" as="geometry">
            <mxPoint x="310" y="660" as="sourcePoint" />
            <mxPoint x="360" y="610" as="targetPoint" />
          </mxGeometry>
        </mxCell>
        <mxCell id="CIHnsiqsybDm5zCaYKHE-145" style="edgeStyle=orthogonalEdgeStyle;rounded=0;orthogonalLoop=1;jettySize=auto;html=1;curved=0;entryX=1;entryY=0;entryDx=0;entryDy=5;entryPerimeter=0;strokeColor=#ff0000;" edge="1" parent="1" source="CIHnsiqsybDm5zCaYKHE-124" target="CIHnsiqsybDm5zCaYKHE-140">
          <mxGeometry relative="1" as="geometry">
            <mxPoint x="610" y="620" as="targetPoint" />
            <Array as="points">
              <mxPoint x="605" y="645" />
            </Array>
          </mxGeometry>
        </mxCell>
        <mxCell id="CIHnsiqsybDm5zCaYKHE-124" value="" style="html=1;points=[[0,0,0,0,5],[0,1,0,0,-5],[1,0,0,0,5],[1,1,0,0,-5]];perimeter=orthogonalPerimeter;outlineConnect=0;targetShapes=umlLifeline;portConstraint=eastwest;newEdgeStyle={&quot;curved&quot;:0,&quot;rounded&quot;:0};strokeColor=#ff0000;" vertex="1" parent="1">
          <mxGeometry x="835" y="550" width="10" height="100" as="geometry" />
        </mxCell>
        <mxCell id="CIHnsiqsybDm5zCaYKHE-125" style="edgeStyle=orthogonalEdgeStyle;rounded=0;orthogonalLoop=1;jettySize=auto;html=1;curved=0;entryX=0;entryY=0;entryDx=0;entryDy=5;entryPerimeter=0;strokeColor=#ff0000;" edge="1" parent="1" source="CIHnsiqsybDm5zCaYKHE-92" target="CIHnsiqsybDm5zCaYKHE-124">
          <mxGeometry relative="1" as="geometry">
            <Array as="points">
              <mxPoint x="660" y="555" />
              <mxPoint x="660" y="555" />
            </Array>
          </mxGeometry>
        </mxCell>
        <mxCell id="CIHnsiqsybDm5zCaYKHE-126" value="&lt;span style=&quot;font-weight: normal;&quot;&gt;&lt;font style=&quot;font-size: 10px;&quot;&gt;9. DiskusiControler ( )&lt;/font&gt;&lt;/span&gt;" style="text;align=left;fontStyle=1;verticalAlign=middle;spacingLeft=3;spacingRight=3;strokeColor=none;rotatable=0;points=[[0,0.5],[1,0.5]];portConstraint=eastwest;html=1;" vertex="1" parent="1">
          <mxGeometry x="605" y="534" width="80" height="26" as="geometry" />
        </mxCell>
        <mxCell id="CIHnsiqsybDm5zCaYKHE-128" value="" style="html=1;points=[[0,0,0,0,5],[0,1,0,0,-5],[1,0,0,0,5],[1,1,0,0,-5]];perimeter=orthogonalPerimeter;outlineConnect=0;targetShapes=umlLifeline;portConstraint=eastwest;newEdgeStyle={&quot;curved&quot;:0,&quot;rounded&quot;:0};gradientColor=none;fillColor=default;strokeColor=#ff0000;" vertex="1" parent="1">
          <mxGeometry x="355" y="584" width="10" height="26" as="geometry" />
        </mxCell>
        <mxCell id="CIHnsiqsybDm5zCaYKHE-129" style="edgeStyle=orthogonalEdgeStyle;rounded=0;orthogonalLoop=1;jettySize=auto;html=1;curved=0;entryX=1;entryY=0;entryDx=0;entryDy=5;entryPerimeter=0;strokeColor=#ff0000;" edge="1" parent="1" source="CIHnsiqsybDm5zCaYKHE-124" target="CIHnsiqsybDm5zCaYKHE-128">
          <mxGeometry relative="1" as="geometry">
            <Array as="points">
              <mxPoint x="720" y="589" />
              <mxPoint x="720" y="589" />
            </Array>
          </mxGeometry>
        </mxCell>
        <mxCell id="CIHnsiqsybDm5zCaYKHE-131" value="&lt;span style=&quot;font-weight: normal;&quot;&gt;&lt;font style=&quot;font-size: 10px;&quot;&gt;10. Error ( )&lt;/font&gt;&lt;/span&gt;" style="text;align=left;fontStyle=1;verticalAlign=middle;spacingLeft=3;spacingRight=3;strokeColor=none;rotatable=0;points=[[0,0.5],[1,0.5]];portConstraint=eastwest;html=1;" vertex="1" parent="1">
          <mxGeometry x="620" y="570" width="80" height="26" as="geometry" />
        </mxCell>
        <mxCell id="CIHnsiqsybDm5zCaYKHE-133" value="Alternative&amp;nbsp;&lt;div&gt;Event:&lt;span style=&quot;background-color: initial; font-size: 10px; text-align: left; text-wrap-mode: nowrap;&quot;&gt;( Diskusi Belum Dibuka&lt;/span&gt;&lt;span style=&quot;font-size: 10px; text-align: left; text-wrap-mode: nowrap; background-color: initial;&quot;&gt;)&lt;/span&gt;&lt;/div&gt;" style="shape=note;whiteSpace=wrap;html=1;backgroundOutline=1;darkOpacity=0.05;size=18;" vertex="1" parent="1">
          <mxGeometry x="180" y="700" width="120" height="74" as="geometry" />
        </mxCell>
        <mxCell id="CIHnsiqsybDm5zCaYKHE-134" value="" style="html=1;points=[[0,0,0,0,5],[0,1,0,0,-5],[1,0,0,0,5],[1,1,0,0,-5]];perimeter=orthogonalPerimeter;outlineConnect=0;targetShapes=umlLifeline;portConstraint=eastwest;newEdgeStyle={&quot;curved&quot;:0,&quot;rounded&quot;:0};strokeColor=#ff0000;" vertex="1" parent="1">
          <mxGeometry x="955" y="596" width="10" height="44" as="geometry" />
        </mxCell>
        <mxCell id="CIHnsiqsybDm5zCaYKHE-136" value="&lt;span style=&quot;font-weight: normal;&quot;&gt;&lt;font style=&quot;font-size: 10px;&quot;&gt;11.PostingDiskusi( )&lt;/font&gt;&lt;/span&gt;" style="text;align=left;fontStyle=1;verticalAlign=middle;spacingLeft=3;spacingRight=3;strokeColor=none;rotatable=0;points=[[0,0.5],[1,0.5]];portConstraint=eastwest;html=1;" vertex="1" parent="1">
          <mxGeometry x="860" y="577" width="80" height="26" as="geometry" />
        </mxCell>
        <mxCell id="CIHnsiqsybDm5zCaYKHE-138" style="edgeStyle=orthogonalEdgeStyle;rounded=0;orthogonalLoop=1;jettySize=auto;html=1;curved=0;entryX=0;entryY=0;entryDx=0;entryDy=5;entryPerimeter=0;strokeColor=#ff0000;" edge="1" parent="1" source="CIHnsiqsybDm5zCaYKHE-124" target="CIHnsiqsybDm5zCaYKHE-134">
          <mxGeometry relative="1" as="geometry">
            <Array as="points">
              <mxPoint x="870" y="601" />
              <mxPoint x="870" y="601" />
            </Array>
          </mxGeometry>
        </mxCell>
        <mxCell id="CIHnsiqsybDm5zCaYKHE-140" value="" style="html=1;points=[[0,0,0,0,5],[0,1,0,0,-5],[1,0,0,0,5],[1,1,0,0,-5]];perimeter=orthogonalPerimeter;outlineConnect=0;targetShapes=umlLifeline;portConstraint=eastwest;newEdgeStyle={&quot;curved&quot;:0,&quot;rounded&quot;:0};gradientColor=none;fillColor=default;strokeColor=#ff0000;" vertex="1" parent="1">
          <mxGeometry x="595" y="640" width="10" height="40" as="geometry" />
        </mxCell>
        <mxCell id="CIHnsiqsybDm5zCaYKHE-143" value="" style="endArrow=open;endSize=12;dashed=1;html=1;rounded=0;strokeColor=#ff0000;" edge="1" parent="1" source="CIHnsiqsybDm5zCaYKHE-134" target="CIHnsiqsybDm5zCaYKHE-124">
          <mxGeometry width="160" relative="1" as="geometry">
            <mxPoint x="860" y="670" as="sourcePoint" />
            <mxPoint x="1020" y="670" as="targetPoint" />
            <Array as="points">
              <mxPoint x="900" y="630" />
            </Array>
          </mxGeometry>
        </mxCell>
        <mxCell id="CIHnsiqsybDm5zCaYKHE-144" value="&lt;span style=&quot;font-weight: normal;&quot;&gt;&lt;font style=&quot;font-size: 10px;&quot;&gt;12. Return&lt;/font&gt;&lt;/span&gt;" style="text;align=left;fontStyle=1;verticalAlign=middle;spacingLeft=3;spacingRight=3;strokeColor=none;rotatable=0;points=[[0,0.5],[1,0.5]];portConstraint=eastwest;html=1;" vertex="1" parent="1">
          <mxGeometry x="870" y="627" width="80" height="26" as="geometry" />
        </mxCell>
        <mxCell id="CIHnsiqsybDm5zCaYKHE-146" value="&lt;span style=&quot;font-weight: normal;&quot;&gt;&lt;font style=&quot;font-size: 10px;&quot;&gt;13. Diskusi ( )&lt;/font&gt;&lt;/span&gt;" style="text;align=left;fontStyle=1;verticalAlign=middle;spacingLeft=3;spacingRight=3;strokeColor=none;rotatable=0;points=[[0,0.5],[1,0.5]];portConstraint=eastwest;html=1;" vertex="1" parent="1">
          <mxGeometry x="620" y="624" width="80" height="26" as="geometry" />
        </mxCell>
        <mxCell id="CIHnsiqsybDm5zCaYKHE-147" value="" style="endArrow=none;dashed=1;html=1;rounded=0;entryX=0;entryY=1;entryDx=0;entryDy=-5;entryPerimeter=0;" edge="1" parent="1" target="CIHnsiqsybDm5zCaYKHE-128">
          <mxGeometry width="50" height="50" relative="1" as="geometry">
            <mxPoint x="300" y="774" as="sourcePoint" />
            <mxPoint x="350" y="724" as="targetPoint" />
          </mxGeometry>
        </mxCell>
        <mxCell id="CIHnsiqsybDm5zCaYKHE-112" value="" style="html=1;points=[[0,0,0,0,5],[0,1,0,0,-5],[1,0,0,0,5],[1,1,0,0,-5]];perimeter=orthogonalPerimeter;outlineConnect=0;targetShapes=umlLifeline;portConstraint=eastwest;newEdgeStyle={&quot;curved&quot;:0,&quot;rounded&quot;:0};gradientColor=none;fillColor=default;strokeColor=#ff0000;" vertex="1" parent="1">
          <mxGeometry x="355" y="456" width="10" height="34" as="geometry" />
        </mxCell>
      </root>
    </mxGraphModel>
  </diagram>
</mxfile>
